<svg id="Layer_1" data-name="Layer 1" xmlns="http://www.w3.org/2000/svg" viewBox="0 0 1506.4 552.04"><defs><style>.cls-1{fill:#fe9bc9;}.cls-2{fill:#e574a6;}.cls-3{fill:#f8c18a;}.cls-4{fill:#f1bed6;}.cls-5{fill:#f3b985;}.cls-6{fill:#c3d3e5;}.cls-7{fill:#e95c94;}.cls-8{fill:#ee5691;}.cls-9{fill:#f6c5df;}.cls-10{fill:#f1bdd4;}.cls-11{fill:#eb5a93;}.cls-12{fill:#e36c9c;}.cls-13{fill:#e75a92;}.cls-14{fill:#df6091;}.cls-15{fill:#e3699a;}.cls-16{fill:#e55b92;}.cls-17{fill:#eeb4d1;}.cls-18{fill:#e8abc6;}.cls-19{fill:#f2c4dc;}.cls-20{fill:#eeb6d2;}.cls-21{fill:#e16194;}.cls-22{fill:#eebad6;}.cls-23{fill:#e076a0;}.cls-24{fill:#f5c3dc;}.cls-25{fill:#e278a2;}.cls-26{fill:#f3bed8;}.cls-27{fill:#efb8d4;}.cls-28{fill:#f277ac;}.cls-29{fill:#eebcd3;}.cls-30{fill:#e27da6;}.cls-31{fill:#cac8e3;}.cls-32{fill:#f9b994;}.cls-33{fill:#d57c9f;}.cls-34{fill:#f5c7d8;}.cls-35{fill:#d7769f;}.cls-36{fill:#ebafc8;}.cls-37{fill:#f7b59a;}.cls-38{fill:#fdd1ec;}.cls-39{fill:#f676ad;}.cls-40{fill:#f7b98e;}.cls-41{fill:#f8be90;}.cls-42{fill:#d7c3aa;}.cls-43{fill:#f473ab;}.cls-44{fill:#f8bd8b;}.cls-45{fill:#fac18e;}.cls-46{fill:#f7ba91;}.cls-47{fill:#f274aa;}.cls-48{fill:#f7bd8f;}.cls-49{fill:#f574ab;}.cls-50{fill:#f273aa;}.cls-51{fill:#f376ad;}.cls-52{fill:#d2cda6;}.cls-53{fill:#cfcaa7;}.cls-54{fill:#f575ad;}.cls-55{fill:#f579af;}.cls-56{fill:#f474ac;}.cls-57{fill:#f477ad;}.cls-58{fill:#f7c992;}.cls-59{fill:#c1d5eb;}.cls-60{fill:#f476ac;}.cls-61{fill:#f477ae;}.cls-62{fill:#f17baf;}.cls-63{fill:#f36ea8;}.cls-64{fill:#cfe2a4;}.cls-65{fill:#fdcd89;}.cls-66{fill:#c7d1e6;}.cls-67{fill:#f572ab;}.cls-68{fill:#f47ab0;}.cls-69{fill:#cacce3;}.cls-70{fill:#fcc78f;}.cls-71{fill:#fcc391;}.cls-72{fill:#c5d2e9;}.cls-73{fill:#c8dca4;}.cls-74{fill:#d0d5aa;}.cls-75{fill:#fdc88c;}.cls-76{fill:#f272a9;}.cls-77{fill:#c4cee2;}.cls-78{fill:#d1d2a9;}.cls-79{fill:#ec5b97;}.cls-80{fill:#f079ae;}.cls-81{fill:#c3d7eb;}.cls-82{fill:#f773ab;}.cls-83{fill:#f17aaf;}.cls-84{fill:#c6d2e5;}.cls-85{fill:#d7d1aa;}.cls-86{fill:#c6d2e7;}.cls-87{fill:#cadbe9;}.cls-88{fill:#c3d6ea;}.cls-89{fill:#d0d7a8;}.cls-90{fill:#cedaaa;}.cls-91{fill:#eb5a96;}.cls-92{fill:#c1d4e8;}.cls-93{fill:#d2d6a8;}.cls-94{fill:#fccd87;}.cls-95{fill:#d0d9a8;}.cls-96{fill:#e85b97;}.cls-97{fill:#e95a97;}.cls-98{fill:#ef5998;}.cls-99{fill:#ccdda9;}.cls-100{fill:#bfdcef;}.cls-101{fill:#c4d6eb;}.cls-102{fill:#fdce87;}.cls-103{fill:#fdc5e7;}.cls-104{fill:#fed382;}.cls-105{fill:#fcc887;}.cls-106{fill:#ec5b98;}.cls-107{fill:#c1eca0;}.cls-108{fill:#cce2a6;}.cls-109{fill:#eb5997;}.cls-110{fill:#ee5b98;}.cls-111{fill:#e95b98;}.cls-112{fill:#ea5c98;}.cls-113{fill:#e85c97;}.cls-114{fill:#d0dba6;}.cls-115{fill:#c2d8ea;}.cls-116{fill:#eb5a98;}.cls-117{fill:#fccc8c;}.cls-118{fill:#ea5895;}.cls-119{fill:#eb5b98;}.cls-120{fill:#fdcd87;}.cls-121{fill:#ccdfa5;}.cls-122{fill:#ec5896;}.cls-123{fill:#ec5694;}.cls-124{fill:#c1dcec;}.cls-125{fill:#ec5997;}.cls-126{fill:#ea5896;}.cls-127{fill:#ea5d9a;}.cls-128{fill:#c7e2a1;}.cls-129{fill:#e95893;}.cls-130{fill:#e55a96;}.cls-131{fill:#bae0f3;}.cls-132{fill:#ee5997;}.cls-133{fill:#f4a99f;}.cls-134{fill:#ea5997;}.cls-135{fill:#e95794;}.cls-136{fill:#fecaea;}.cls-137{fill:#f8afa3;}.cls-138{fill:#dfb2ab;}.cls-139{fill:#f3ac9e;}.cls-140{fill:#f5a398;}.cls-141{fill:#e0b6aa;}.cls-142{fill:#f0a59d;}.cls-143{fill:#f4a1a1;}.cls-144{fill:#f3a897;}.cls-145{fill:#f6b491;}.cls-146{fill:#f2a49c;}.cls-147{fill:#ed9e94;}.cls-148{fill:#d8afce;}.cls-149{fill:#f0a396;}.cls-150{fill:#dbbfd6;}.cls-151{fill:#f1a394;}.cls-152{fill:#dfc2b6;}.cls-153{fill:#f5b196;}.cls-154{fill:#f077ac;}.cls-155{fill:#ee72a8;}.cls-156{fill:#f175ac;}.cls-157{fill:#f073a7;}.cls-158{fill:#d08397;}.cls-159{fill:#f274ab;}.cls-160{fill:#eb6ba3;}.cls-161{fill:#d8b3a5;}.cls-162{fill:#cb888c;}.cls-163{fill:#f1a69a;}.cls-164{fill:#dac2da;}.cls-165{fill:#e970a5;}.cls-166{fill:#ddbfd9;}.cls-167{fill:#ee75a9;}.cls-168{fill:#e17c83;}.cls-169{fill:#c5858b;}.cls-170{fill:#ea76aa;}.cls-171{fill:#dd7a7e;}.cls-172{fill:#e28185;}.cls-173{fill:#d38ab8;}.cls-174{fill:#ef74a8;}.cls-175{fill:#d7c4e5;}.cls-176{fill:#d38c9a;}.cls-177{fill:#dd777a;}.cls-178{fill:#efe4ef;}.cls-179{fill:#dcc4de;}.cls-180{fill:#d9c8dc;}.cls-181{fill:#e07c7e;}.cls-182{fill:#c381ab;}.cls-183{fill:#df649a;}.cls-184{fill:#e76aa0;}.cls-185{fill:#c28084;}.cls-186{fill:#dd8185;}.cls-187{fill:#bb7ba5;}.cls-188{fill:#e0649b;}.cls-189{fill:#e16ea1;}.cls-190{fill:#d3c9df;}.cls-191{fill:#d97a78;}.cls-192{fill:#cc8e8b;}.cls-193{fill:#d6c7dd;}.cls-194{fill:#d77c7c;}.cls-195{fill:#e869a0;}.cls-196{fill:#c8858d;}.cls-197{fill:#cd828f;}.cls-198{fill:#e6639c;}.cls-199{fill:#dc7b7b;}.cls-200{fill:#de7d8b;}.cls-201{fill:#e06799;}.cls-202{fill:#dc689b;}.cls-203{fill:#ddc8e6;}.cls-204{fill:#de6299;}.cls-205{fill:#df6ea2;}.cls-206{fill:#db699c;}.cls-207{fill:#c78e8d;}.cls-208{fill:#e0659b;}.cls-209{fill:#ea6aa1;}.cls-210{fill:#cc8180;}.cls-211{fill:#e8639d;}.cls-212{fill:#e5669f;}.cls-213{fill:#c28ab0;}.cls-214{fill:#c47d86;}.cls-215{fill:#d8689a;}.cls-216{fill:#c68385;}.cls-217{fill:#de679b;}.cls-218{fill:#c38884;}.cls-219{fill:#e1639a;}.cls-220{fill:#cb8090;}.cls-221{fill:#d97577;}.cls-222{fill:#ca7aa7;}.cls-223{fill:#d57c78;}.cls-224{fill:#e9619b;}.cls-225{fill:#db689b;}.cls-226{fill:#de817c;}.cls-227{fill:#c978a3;}.cls-228{fill:#c0759f;}.cls-229{fill:#c07aaa;}.cls-230{fill:#e08383;}.cls-231{fill:#d67d80;}.cls-232{fill:#de7a86;}.cls-233{fill:#d67d7e;}.cls-234{fill:#d4707f;}.cls-235{fill:#c5eb9b;}</style></defs><path class="cls-1" d="M.46,239.35.4,148.72c3.41-4.5,10-6.41,11.1-12.73-3.32-4.23-7.94.66-11.11-2.28l.1-131c4.2-1.91,8.65-1,13-1q740-.09,1480,0c4.3,0,8.77-1.09,12.91,1.1v31c-7.49,5-18,3.85-24.68,12.21,4.71,2.23,8.55.14,12.47-1.15s7.66-4.93,12.21-1.51v95.5c-4.82,4-6.35,8,0,11.94v88.34c-2.7,3.51-8.18,1.94-11,5.45,2.62,4.69,8.41,2.81,11,6.49v78.79c-15.56-.09-22,13.28-31.84,21.61-1.43,1.21-2.09,3.31-4.41,3.39-11.34.09-18.28-5.38-22-16.1-2.64-7.52-4.38-16.69-15.54-16.6a21.48,21.48,0,0,0-12.07-1.61c-9.37-2.83-15.78,2.22-21.31,8.52-6.76,7.7-11.84,16.93-19.74,23.53-4.11,3.43,5.64,5.5,0,8-9.88,2.06-17.25,11.33-28.36,9.87-16.8,1.59-32.12-1.5-44.25-14.27-6.16-6.48-9.12-15.34-15.77-21.47-2.38-2-2.24-4.68-1.88-7.39,1.83-8.67-3.3-14.87-7.59-21.36-8.64-8-13.64-7.82-19.5,1.95-6.44,10.74-10.92,22.05-12.57,35-4.31,33.85-11,67.45-8.52,101.85.79,11,1.71,22,2.57,33a53.4,53.4,0,0,1,0,33.69c-.1,1.52-.2,3-.31,4.56-5.48,2-5.48,2-7.06-6.39-5.87,22.55-15.08,30.34-35.53,30,10.79.31,13.26-.34,23.46-6.17,5.15-2.94,5.15-2.94,9.94-.5-14.64,17.57-28.55,22.65-45.53,16.65,2.75-2.72,6-1.15,8.84-1-15.73-2.62-25.53-11.22-31.88-26.67-11-26.87-2.75-51.86,3.76-77.35,4.46,1.72,5.67-1.67,6.73-4.64,5.47-15.27,12-30.17,15.37-41.67-1.25,9.24-9.28,20.67-12.35,33.87-.6,2.58-1.66,9.33-8.28,6.92-3.12-6.5,0-12.34,2-18.25,6.42-19.06,13.94-37.73,16.21-58,2.64-23.56,1.57-46.55-8.36-68.41-2-4.51-4.09-9.54-9-12.25l-4.27-7.31c-2.57-7.33-9.18-9.31-15.5-11.68-3.06-.21-6.29.25-8.8-2.19-3.06-2.8-7.83-.87-10.81-3.87-8.19-5.22-15.28-1.31-21.69,3.31-9,6.49-14.22,16-16.59,26.56-1.88,8.39-4.86,15.78-10.71,22-7.77,5.72-15.42,11.72-25.62,12.53-25-1.43-35.33-10.48-40.12-35-1.28-6.58-2-13.26-4.06-19.69-5.28-17-14.18-22.68-32.57-21l-5.1.56c-1.44-4.15-3.62-3-6-.84-7.92,7.18-14.62,15-18.36,25.44-3.61,10.06-6.38,21.46-20.25,23.35-2.08.28,4.43,2.69,1.11,5.32-15.4,3.84-27.77-1.58-38.06-12.7-7.73-8.36-14.46-17.59-22.36-25.84-3.94-4.1-8.26-6.84-13.85-7.62-23.1-3.61-36.3,4.18-40.45,23.88-.44,12.75-7,25.41-.44,38.28.67,1.32.17,3.12-.31,4.67-3.39,11-12.39,16.79-21.31,22.64-15.83-1.83-23-10.86-20.93-27.93,1.28-10.68,2.4-21.32,1.41-32-1-10.36-4.54-19.36-16.11-22.34l-16-4.38c-10.38,0-14.61,5.35-13.22,16.69,1.11,9,6.86,16.86,6.76,26.24,0,1.57.41,3.1-.75,4.43-3.22,10.93-12.79,11.92-21.74,13.87C698,312,693.49,303.45,699,287.29a100.08,100.08,0,0,0,4.48-20.8c.76-6.79-1-12.63-8.26-15.27-16.83-6.51-25-4-37.79,11.59-14.19,10.62-19.38,26.85-12.8,42.87,5.31,12.93,6.33,26.82,10.24,40.06,2.62,8.89,1.86,18.41-7.1,24.52-3.07,2.09-1.65,4.86-2.27,7.32-8.37,3.84-16.77,7.43-26,2.63a3.67,3.67,0,0,1,.88-.79,3.44,3.44,0,0,1,1.15-.16c-26-15.11-23.6-41.87-15-64.43,8-21,10.29-42.78-4.06-62.32-8.42-11.45-20.84-17.41-35.3-18.42-16.61-6.29-32.9,1.86-38.53,24.22-3.72,5.89.59,11.5,1,17.15,1.1,14.74-2.25,27.31-13.08,37.62-4.73,0-9.34,5.33-14.19.35-15.16-4.54-20.77-15.19-20.05-30.35.36-7.43.62-14.95-.34-22.35-.58-4.53-1-9.53-6.19-11.85-7.19-13-24.89-19.66-43.07-16.33-3.09.56-6.19,1.09-9.29,1.63-.8-7.83,9.95-9.89,9.06-18.88-8.17,4.45-14.14,9.13-11.44,19.21-28.85,12.86-36,38.54-37.93,66.35-1.24,17.54-2.46,35.45,6.68,52.07,2.33,4.23,1.9,10,2.73,15,7.18,21-10.65,28.77-36.25,29.43,7.08,2.19,12.81-1.45,18.87-1.89,2-.15,4.33-.27,4.93,2,.9,3.4-3.41,2.37-4.35,4.38-3.45,3.4-7.82,5-12.32,6.39-6.4-3.71-14-.72-20.71-4.28-18.92-10.06-27.42-26.24-24.07-48.18,2.73-17.89.49-33.88-16-44.9C286.83,299,270,295,251.3,303.7c-2.63,2.09-6.59.11-8.85,2.45-7.83,8.15-17.3,11.77-28.47,11.21-7.6,9.35-7.14,15.44,1.46,18.85,6.07-.92,10,1.57,11.61,7.47a102.63,102.63,0,0,0,4.68,12.18c3.51,8.38,1.8,19.36,12.22,24.27,4.53,9.85,5.43,20.2,5.17,30.94-.49,20.77-13.09,35.89-34.18,40-11.44-1.33-22.82-2.32-29.43-14.22-3.76-6.77-5-13-1.64-20.21a239.16,239.16,0,0,1,11.48-22c6.23-10.37,13-21.5,3.26-33.75-5.65.08-8.07-5.46-12.92-7.26-9.9-3.66-18.9-3.28-27.65,2.59a34,34,0,0,0-16.57,10.49c-9.62,10.84-21.76,19.07-31.33,30-9.2,3.34-18.52,6-28.48,4.93-23-1.9-40.54-12.88-53.67-31.68a40.73,40.73,0,0,1-6.8-17.3c-1.34-7.94-1.86-17-11.84-20.07-7.78-2.11-9.55-7.21-9.33-15,.59-21.36.22-42.75.24-64.12,2.62-3.56,9.84-1.53,10.17-6C10.8,242,3.15,243,.46,239.35Z"/><path class="cls-2" d="M1506.37,2.84H10.05c-3.19,0-6.37-.1-9.56-.15C3.89-1.65,8.64.57,12.66.57Q759.51.39,1506.37.48Z"/><path class="cls-3" d="M1506.37,43.48c-8.49,1.2-15.1,8.77-24.45,7.12-2.23-.39-4.94.3-5.92-2.58s1.36-4.15,3.28-5.43c8.19-5.48,16.71-10,27.09-8.66Z"/><path class="cls-4" d="M1470.39,353.79c3.48-12.65,24.78-26.77,36-23.85v2.39c-7.15,2.41-12.57,6.74-17.7,12.49-4.65,5.2-10.08,11.07-18.42,11q-.9-.74-.54-1.41C1470,354,1470.17,353.79,1470.39,353.79Z"/><path class="cls-5" d="M1506.37,251.15c-6.18-.5-15.92,1.83-15.61-6.83.29-8.16,9.88-4.35,15.61-5.11Z"/><path class="cls-6" d="M1506.37,150.87c-3.57-.4-8.7,1.48-9.28-4.08-.66-6.24,4.71-6.92,9.28-7.86Z"/><path class="cls-7" d="M1171.5,282.17c5.4-2.48,6.74,1.89,8.6,5.17,13.3,23.33,15.29,48.6,12.32,74.57-2.5,21.91-9.75,42.51-18,62.85-1.85,4.57-3.77,9.72-2.44,15.07a3.12,3.12,0,0,1-.2,4.39l-.23.19c-4.16,4.16-1.69,9.81-3.29,14.67-3.13,9.52-4.19,20.11-5,29.53-1.9,22.67,6.09,53.45,36.9,61.06H1188.4c-19.77-2.17-36.55-29.87-36-46.51.26-8.3.3-16.62.45-24.92,3.38-3.48.82-8.95,4.19-12.43,4.17-28.06,14.72-54.53,20.85-82,7-31.16,11.71-63.1-3.92-93.75C1172.74,287.63,1172.31,284.81,1171.5,282.17Z"/><path class="cls-8" d="M567.05,234.06c15.17-3.57,27.21,3.39,36.06,13.86,17.46,20.56,14.46,44.4,6.46,67.79-3.5,10.14-8.11,20.85-6.12,30.77,2.31,11.56,6.21,24.2,18.27,30.87,1.42.78,3.26.8,7.45,1.73l-9.7,1.1C598.05,377,581.2,357.31,591.58,332c6.79-16.57,13-35.15,11.28-54.65C601.18,259,585.35,238.87,567.05,234.06Z"/><path class="cls-9" d="M645.45,377.55l-9.56-4.72c8-2.89,15.2-6.23,16.57-14,1.21-6.83-.37-13.52-2.9-20.62-4.28-12-5.52-24.85-10.34-37.14-5-12.75,2.61-25.21,9.64-36.32,1.83-2.89,5.17-3.46,8.52-2-3.88,12.87-13.25,25-9,39.11,4.66,15.32,6.85,31,10.13,46.51C661.57,362.48,659.19,370.48,645.45,377.55Z"/><path class="cls-10" d="M243.91,380.11c-.59-.5-1.21-1.48-1.78-1.44-7.71.44-8.15-.79-10.39-11-2-8.94-5.47-17.55-8.38-26.28-1.58-4.73-5.18-1.71-7.94-1.9-3.48-1.83-8.25-2.76-6-8.58,11.76-2.89,12.24-4.51,4.12-14.14-.27-.46-.53-.93-.79-1.41l2.37-3.88c10.71,7.1,16.71-2.66,24.56-6.49,3.3-1.61,7.71-1,11.61-1.34-19.55,10.83-20,29.29-14.1,47.83A179,179,0,0,1,243.91,380.11Z"/><path class="cls-11" d="M759.79,260.75c12.32,1.93,19.24,8.65,19.73,20.87.42,10.58.69,21.14-1.71,31.8-3.49,15.5,3.71,25.82,18.23,28.51q2.31,1.06,0,2c-26.33,2.71-33.55-5.49-29.24-31.95,1.7-10.47,3.69-20.93,3.42-31.74C770,271.66,767.57,265,759.79,260.75Z"/><path class="cls-12" d="M302.57,310.86c15,6.23,23.41,24.6,19.86,43.42-5.21,27.61,6.74,45,34.24,49.7,3,.5,5.27,1.52,6.66,4.24-26.87,5.25-55-14.7-49.37-50.56C316.71,340.07,317,323.89,302.57,310.86Z"/><path class="cls-13" d="M475.69,248.85c6.3-.48,8.88,1.29,9.57,8.3a87.91,87.91,0,0,1,.12,20.25c-2.17,15.88,3.16,27.78,16.89,36-25.89-2.38-32.83-10.78-28.71-35.34C475.19,268.36,476.75,258.72,475.69,248.85Z"/><path class="cls-14" d="M980.76,245.88c14-6.39,29.79,3,35.86,20.93,3.5,10.37,3.74,21.24,7.86,31.75,6.67,17,20,19.63,34.69,21.85.86.49,1.15,1,.88,1.5s-.55.78-.83.78c-10.8.72-21.23,0-30.92-5.76-12-7.22-19.57-16.57-17.22-31.54a42.32,42.32,0,0,0,0-7.12C1010.57,254.25,1004.57,247.83,980.76,245.88Z"/><path class="cls-15" d="M198.57,360.88c5.9,3.8,8.94,11.06,6.72,19-2,7.11-4.56,13.9-9.69,19.92-11.41,13.39-12.85,27.81-5.45,39.05,5.9,9,16.47,8.21,24.76,12.18-14.79,1.16-28.48-.07-35.51-16-3.29-5.6-3.09-11.24-.21-16.92.51-13.7,10.78-23,16.42-34.24C199.67,375.77,201.28,369.05,198.57,360.88Z"/><path class="cls-16" d="M695.17,251.19c10.7-.59,13.63,6.39,11.75,14.6-2.15,9.39-3.65,18.89-7.27,28.23-4.45,11.53,7,17.55,15.18,23.58-23.28.19-33.58-13.15-22.07-36.51C697.11,272.26,702.89,261.78,695.17,251.19Z"/><path class="cls-17" d="M932.45,298.77c-2.3-3.7-6.85-1-9.61-3.26a2.34,2.34,0,0,1,1.32-3,2.13,2.13,0,0,1,1-.16c15.53,1,20.06-10.64,23.42-21.75,4.83-15.92,15.62-25.57,29.08-33.73,4.13,5-1.81,6.5-2,9.6-8.46,6.64-14.86,14.4-17.58,25.33-3.12,12.57-9.91,22.8-23.14,27.15a1.43,1.43,0,0,1-2,.41A1.45,1.45,0,0,1,932.45,298.77Z"/><path class="cls-18" d="M1059.22,322.69a11.57,11.57,0,0,0,0-2.28l21.46-11.93c9.31-4.65,10.68-14.2,13.63-22.6,3.32-9.44,7.17-18.52,15.21-24.88,6.9-5.45,14.26-10.33,23.64-5.19,3,2.25,7.58,1.49,9.82,5.17-21.28-5.5-36.14,14.32-42.58,30.52C1092.57,311,1077.57,322.55,1059.22,322.69Z"/><path class="cls-19" d="M1379.38,360.65c.13-6.85-5.46-1.32-8.39-4.14,14.61-9.61,20-27.42,34.65-36.8,4.73-3,10.48-8.4,14.83.92-12.69,6.48-18.66,19.38-27.57,29.41A47.72,47.72,0,0,1,1379.38,360.65Z"/><path class="cls-20" d="M796,344a7.44,7.44,0,0,0,0-2,76.17,76.17,0,0,0,18-21.81c.69-1.25,1.24-3.54.6-4.4-10.37-13.68.78-25.64,2.88-38.29.65,12.45-.07,25,6.93,36.45,3,5-5.35,22.58-11.62,25C807.4,341,802.41,345.06,796,344Z"/><path class="cls-21" d="M932.45,298.77l2.49.15c-16.37,8.05-37.27,2.56-47.55-11.85-8.66-12.14-16-25.51-29.46-33.52,15.36-1.06,21.75,11.25,29.28,20.73C899,289.14,911.35,301.64,932.45,298.77Z"/><path class="cls-22" d="M516.46,313.05c-.17-2.29-1.3-6.08-.38-6.65,16.78-10.6,9-26.51,8.75-40.55-.06-3.8.55-6,3.69-7.57,6.87,11.64,8.08,24.53,7.09,37.49C534.76,306.92,526.72,311.56,516.46,313.05Z"/><path class="cls-23" d="M9.31,332.55c9.84-3.11,10.7,5.2,11.42,10.52,2.82,20.68,15.51,34.16,30.72,46.66,9,7.42,20.42,7.2,30.17,11.87C49,402,24.71,382.6,19.2,351,17.9,343.48,13,338.48,9.31,332.55Z"/><path class="cls-24" d="M1234,533c-5-2-7.44,2.86-11.07,4.37-10,4.18-19.79,8.06-31.79-.33,30.55,5.72,40.77-11.65,43.58-38.32,5.37,5.21,3.73,9.71,3.89,13.62.15,3.38.47,5.64,4.59,3.7C1241.2,522.32,1242.15,530.15,1234,533Z"/><path class="cls-25" d="M1291,334.78c3-.35,7.45,2.62,10,8a44.56,44.56,0,0,0,12.38,15.41c8.09,6.72,16.49,11.81,27.71,10.09,3.32-.51,7.2-1,9.94,2.21C1318.32,377.48,1300.11,363.48,1291,334.78Z"/><path class="cls-26" d="M110.1,396.67c3.24-14.55,18.74-17.88,26.27-28.61,5.11-7.28,11.47-13.29,21.63-11.85-13.35,9.84-21.74,24.76-35.35,34.39C118.72,393.37,115.09,396.3,110.1,396.67Z"/><path class="cls-27" d="M736.57,303.73c-1.19-9.8-6.56-18.29-8.8-27.71-2.12-8.92-1.71-17.34,7.72-22.68,4.32-2.45,7.44-3.23,8.29,3-12.39,7.63-6.81,19.34-6.2,29.55C737.94,292,740.89,298,736.57,303.73Z"/><path class="cls-28" d="M421,234.48c-7.09-1.89-6.41-7.75-3.05-10.76,5.19-4.65,7.83-14.36,17.12-12.24,4.53,1,3.14,6,.88,8.79-3.89,4.87-8.35,9.28-12.57,13.88Z"/><path class="cls-29" d="M375.63,401.83c.16-1.82,6.52-6.42-1.55-4.58-6.67,1.52-13.1,2.27-19.92.53,5.89-1.18,11.87-2.06,17.67-3.58,13.48-3.55,20.29-12.43,20.6-26.26C399,387.11,392.17,398.91,375.63,401.83Z"/><path class="cls-30" d="M1470.39,353.79a9.48,9.48,0,0,1-.14,2.06c-15.91.39-22.3-3.78-27-19.42-1.93-6.38-4.39-11.5-10.69-14.19,13.53-4.23,16.09,7.49,18.23,15C1453.91,348.18,1460.67,352,1470.39,353.79Z"/><path class="cls-31" d="M.39,133.71c2.56-1.08,5.09-2.24,7.69-3.22,3.1-1.18,5.59.54,7.4,2.52,2.64,2.89,0,4.73-1.87,6.92C10,144.22,7,149.06.4,148.72Q.4,141.22.39,133.71Z"/><path class="cls-32" d="M.46,239.35c7.1-.44,15.7,1.55,15.39,8.45-.28,7.34-9.59,5.46-15.62,5.68Q.32,246.42.46,239.35Z"/><path class="cls-24" d="M1243.45,511.48l.06-33.68C1250.15,484.62,1250.12,504.81,1243.45,511.48Z"/><path class="cls-33" d="M1281.57,306c9.75,4.56,10.61,12.27,7.59,21.36C1287.08,320.09,1282,313.89,1281.57,306Z"/><path class="cls-34" d="M179.19,418.12,179.4,435C171.75,429.48,172,423.85,179.19,418.12Z"/><path class="cls-35" d="M1151.73,263.18c10.89,1.41,14.59,4.2,15.5,11.68Z"/><path class="cls-36" d="M1157,465.81c-.2,4.55,2.58,10.09-4.19,12.42C1153.05,473.69,1149.85,468,1157,465.81Z"/><path class="cls-37" d="M852.71,181.74c-3.4-.58-6-1.91-5.08-6.92,1.45-8.19,16.62-18.55,24.68-16.42,3.62,1,5.45,3.24,4.77,7S857.39,182,852.71,181.74Z"/><path class="cls-38" d="M1133.11,255.82c-17.39.25-28.19,8.64-34,25.42-2.67,7.7-6.59,15-9.86,22.47-1.68,3.87-4.69,5.08-8.62,4.78,10.79-10.76,9-27,17.26-39.07,6.58-9.64,14.59-16.26,26.23-17.85C1127.73,251.07,1132.46,249.48,1133.11,255.82Z"/><path class="cls-39" d="M250.9,121.27c-1,5.41-5,6.52-9.69,5.18a155.93,155.93,0,0,1-17.81-6.37c-2.65-1.13-7.33-1.74-6.49-5.48.53-2.36,4.2-4.56,6.94-5.77C230.15,106,250.85,115.6,250.9,121.27Z"/><path class="cls-40" d="M50.5,227.25c.81.1,3.42-.14,5.48.81,4.29,2,12.88.35,11.65,7.29-1.19,6.71-9,6.49-15,6a19.09,19.09,0,0,1-6.87-1.87c-4.58-2.28-11.8-.53-13.14-7.69C32.19,229.48,41.43,227,50.5,227.25Z"/><path class="cls-41" d="M1391.83,155.59c-3.22-.51-7.88,1.69-9.11-3-1.15-4.39,3-5.92,6.14-7.47,6-2.92,12.11-5.85,19-6,3.43-.09,6.32,1.11,7.11,4.87a5.16,5.16,0,0,1-3.65,6.32h0l-.29.07C1404.57,152,1399.12,157.06,1391.83,155.59Z"/><path class="cls-42" d="M1343,145.87c-.65,0-3.1-1.6-3.55-5.37-.62-5.11,12.69-18.16,18.45-18.21,4.17,0,6.78,1.91,7.31,6.18C1365.82,133.54,1352.83,145.2,1343,145.87Z"/><path class="cls-43" d="M1463.38,192.79c4.52-.09,16.75,11.68,16.1,15.91a9.79,9.79,0,0,1-9.5,8.75c-2.72.2-13.76-15.29-13.77-18.85C1456.21,193.28,1460.94,194.28,1463.38,192.79Z"/><path class="cls-44" d="M617.12,208.24c-5.24-.38-10.43.82-11-4.61-.54-5.27,3.27-7.53,8.51-7.42a28.23,28.23,0,0,0,11.45-2.4c4.5-1.86,10.28-.92,11.74,4.55,1.54,5.75-3.27,7-8.08,7.56S620.44,207.61,617.12,208.24Z"/><path class="cls-45" d="M980.18,29.27c-3.31-.65-7.25,1.12-8.59-2.95-1.17-3.52,2.54-4.34,4.4-6.13,5.22-5,11.21-8.73,18.41-10,2.56-.44,5.78-.8,7,2.7,1,2.86.56,6.25-2,7.43C992.93,23.4,987.69,29.37,980.18,29.27Z"/><path class="cls-46" d="M819.57,204.05c-3,6.61-10.25,8.67-16,12.43-3.62,2.35-7.61,4.51-12,1.06-2.26-1.78-2.74-3.78-1-6,6.11-7.89,14.43-11.77,24.18-12.53C817.13,198.78,819.09,200.57,819.57,204.05Z"/><path class="cls-47" d="M1472,287.62c4.56.37,7.85,2.56,9.14,6.69,1.58,5.12,5.81,10.17,2.39,15.81-2.32,3.82-6.44,3.94-9.09.7-4-4.81-8-10-10.23-15.67C1461.57,288.28,1469.14,289.88,1472,287.62Z"/><path class="cls-48" d="M745.57,24.34c-3.12-.78-7.85,1.59-8.5-3.84-.46-3.86,2.89-5.46,5.9-6.4,6.72-2.11,13.37-4.87,20.67-4,3.53.44,6,2.29,5.88,6.1-.12,3.17-2.3,5-5.32,5.43C758,22.64,751.82,23.48,745.57,24.34Z"/><path class="cls-49" d="M351.65,227.37c-6.7-1.53-9.71-10-16-14.43-1-.73-.26-3.47,1.35-4,4-1.17,8-5.14,12.24-1.53,4.49,3.83,8.43,8.31,12.53,12.58a3.3,3.3,0,0,1,.38,4.34C360,227.48,356.73,227.3,351.65,227.37Z"/><path class="cls-50" d="M181,282.29c-11.67-.33-4.64-12.08-8.2-17.88-2.24-3.64,1.58-6.46,5.91-6,9.86,1.13,10.47,9.56,12,16.53C192.05,280.88,187.32,282,181,282.29Z"/><path class="cls-51" d="M1312.77,279.83c-2.71-.16-5.82.34-6.83-3.22-.69-2.46-.18-4.79,2.19-6.18,5.71-3.36,5.68-12.49,14-13.43,3.44-.39,6.18-1.46,7.19,3.12C1330.81,266.78,1319.84,279.92,1312.77,279.83Z"/><path class="cls-52" d="M1408.43,231.9c-1.9-.23-5.93,1.17-6.62-3.34-.55-3.57,2.1-6.39,5.06-7.3,6.38-1.94,12.83-4.57,19.72-3.21,3,.58,7.08,1,6.94,5.07-.12,3.33-3.29,5.49-6.5,6.11C1421.23,230.35,1415.32,230.94,1408.43,231.9Z"/><path class="cls-53" d="M181.68,47.48c.11,5.26-14.9,17.58-19.25,16.57-1.34-.31-3.2-1.56-3.48-2.71-1.61-6.59,2.34-11.71,6.29-15.76,3.78-3.88,9.62-3,14.6-1.15C180.92,44.81,181.37,46.91,181.68,47.48Z"/><path class="cls-54" d="M470.57,65.17c6.57,2,12.67,3.25,18.09,6.66,2.25,1.42,5.7,1.4,4.74,5.31A5.57,5.57,0,0,1,487,81.69h0a6.21,6.21,0,0,1-.85-.21C479,79.59,472,77.14,464.94,74.75c-2.59-.89-3.75-3.12-2.69-5.66C463.91,65.18,467.36,64.65,470.57,65.17Z"/><path class="cls-55" d="M748.71,181.83c-3.38.1-7.23-.87-8.23-3.67-1.49-4.23,3.37-4.79,5.89-5.76,6.24-2.41,12.72-4.22,19.18-6,3.88-1.08,7.52.17,8.52,4.13,1,4.19-3.17,5.12-6,6C761.74,178.57,755.19,180.09,748.71,181.83Z"/><path class="cls-56" d="M987.68,98a18.16,18.16,0,0,1-1.1,3.89c-2.64,4.59-6.42,3.38-10.25,1.85-6.53-2.61-15.67.08-19.26-8.21-1.6-3.72,3.26-6.11,5.71-5.81,7.65.94,15.19,3,22.68,4.87C986.5,94.84,987.05,97,987.68,98Z"/><path class="cls-57" d="M138.4,134.83c-5.57,6.3-9.92,15-19.09,17.75-4.51,1.37-8.68-3-5.88-7,4.85-6.87,10.33-14,19.78-15.61C136.57,129.37,138.68,130.24,138.4,134.83Z"/><path class="cls-58" d="M1422.57,292.11c10.78-4.48,28.24,6.12,28.42,17.37.06,4-4,4.28-6.35,6.17-5.39-3.44-11.32-6.21-14.79-12v.05C1427.26,299.94,1423.89,296.67,1422.57,292.11Z"/><path class="cls-59" d="M1265.46,133.85c-4,0-8.36-1.8-7-5.79,2.77-8.25,11.38-10,18.52-12.71,2.87-1.1,6.42-.23,6.84,4.3C1284.28,124.89,1273.27,133.48,1265.46,133.85Z"/><path class="cls-60" d="M744.26,155.67c-3.28-.25-6.68-.39-6-5.1.6-4.5,16.78-16.7,21.44-16.38,3.07.2,6.78,1.65,4.75,4.58C759.34,146.07,754.3,154,744.26,155.67Z"/><path class="cls-61" d="M947.37,228.71c-6,5-5.81,12.83-10.18,18.3-1.56,2-4.15,2-6.53,1.28a4.26,4.26,0,0,1-2.9-5.27,2.6,2.6,0,0,1,.15-.42c2.07-5.89-.4-13.58,6.33-17.6,3-1.81,6.58-2.9,9.84-.1A37.3,37.3,0,0,1,947.37,228.71Z"/><path class="cls-62" d="M299.94,184.28c-5.82-.45-7.29-4.48-4.7-7.35,5.47-6.07,11.44-12.3,20.22-13.6,4.9-.72,9.45,4,6.38,6.43C315,175.22,308.18,181.59,299.94,184.28Z"/><path class="cls-63" d="M356,22.83c1.08-5.61-2.32-12.49,7.07-12.88,9.12-.38,7.34,5.82,7.72,11.16.47,6.7-1,12.34-8.8,12.48C353.13,33.74,357.91,26.08,356,22.83Z"/><path class="cls-43" d="M1095.74,19.61c7.63,2.63,8,11.31,10.56,17.57,1.68,4-4.43,6.36-8.23,6-9.28-.89-7.7-9.83-9.8-15.57C1086.72,23.38,1089.77,20.16,1095.74,19.61Z"/><path class="cls-64" d="M24.47,41.2C23.26,31,24.56,24.82,33,24.6c7.63-.2,5.17,6.27,5.59,10.48.65,6.46-.73,12.1-8.49,12.75S24.67,42.09,24.47,41.2Z"/><path class="cls-65" d="M905.48,105.18a3,3,0,0,1-3.39-2.38c-.33-1.77-.35-4.57.71-5.45,5.07-4.25,9.61-9.6,16.61-10.73,3-.48,6.6-1.21,8,2.88a6.12,6.12,0,0,1-2.31,7.36C919.57,100.67,913.3,103.17,905.48,105.18Z"/><path class="cls-66" d="M404.49,55.42c-3.53-.11-7.72.44-8.7-4.16-.88-4.12,3-5.16,5.78-6.39,4.7-2.07,9.47-4,14.35-5.63,3-1,5.53.5,6.75,3.4,1,2.45.39,5.38-1.9,6.21C415.25,50.84,410.9,55.71,404.49,55.42Z"/><path class="cls-67" d="M692.4,139.12c5.37-.21,14.45,10.1,13.91,15.92-.32,3.61-2.38,8.12-6.33,7.19-8-1.88-10.16-9.94-13.1-16.29C685.1,142.11,688.74,139.63,692.4,139.12Z"/><path class="cls-68" d="M1001.32,180c-3.49,7.64-12.51,7.71-17.82,13a8.15,8.15,0,0,1-10,.77c-3-2.05-3.66-4.94-.27-6.43,6.65-2.9,11.83-7.85,17.88-11.46C995.16,173.48,999.57,174.15,1001.32,180Z"/><path class="cls-69" d="M1215.7,332.23c-3.15.16-5.28-.88-5.62-4.4-.4-4.09,11.19-16.3,16.19-16.69,4-.32,7,1.3,7.28,5.73C1233.81,320.58,1220.4,332,1215.7,332.23Z"/><path class="cls-70" d="M301.2,215.9c10.54-7.59,14.56,2.7,19,8,3.53,4.25,5.4,11.36-4.31,12.87C308.06,231.89,299.43,227.53,301.2,215.9Z"/><path class="cls-71" d="M1050.09,31.54c2.65-1.87,1.58-8.4,6.76-6.57a32.57,32.57,0,0,1,17.53,15.15c2,3.58-3.52,4.14-5.78,5.92C1057.43,47.58,1053.57,39.85,1050.09,31.54Z"/><path class="cls-72" d="M124,69.61c5.55-4.68,11.74-2.6,13.65,2.38,2.61,6.83,4.33,15.57-6,19.37C121.57,88.41,120.18,84.32,124,69.61Z"/><path class="cls-73" d="M638.57,91.48c.18,5.43-10.24,15.7-15.91,15.61-4.06-.07-6.1-2.91-5.29-6.22,1.86-7.71,7.24-12.59,15-14.33C635.73,85.75,638.57,87.13,638.57,91.48Z"/><path class="cls-74" d="M1168.29,169.12c-2.07-2.27-6.78,1.3-7.92-2.44s2.36-5.35,5.26-6.89c6.22-3.29,11.78-8.22,19.74-6.72,4.12.77,6.8,2.71,2.76,5.81C1182.3,163.34,1176.85,169.15,1168.29,169.12Z"/><path class="cls-75" d="M351.36,358.66c.52-1.85.7-4.18,3.39-4,5.08.42,16.11,13.76,15.67,18.73-.4,4.61-4.06,3.94-7,4.38C353.57,377.94,348.57,370,351.36,358.66Z"/><path class="cls-76" d="M1202.63,117.66c-.62-4.23,1.12-6.94,6-7.93,5.54-1.14,5.68,2.48,6.1,6.12a12.29,12.29,0,0,0,.52,3.46c1.77,3.89,7.29,7.24,1.87,12.06-2,1.81-4.6,3.25-7.56,2C1207.3,132.48,1202.57,121.63,1202.63,117.66Z"/><path class="cls-77" d="M343.34,102.62c-4.1,5.22-1.27,15.45-11.64,17-4.6.67-6.8-1.7-6.52-6.13.52-8,6.05-13.16,12-16.93C340.28,94.59,342.43,98.78,343.34,102.62Z"/><path class="cls-78" d="M1001.89,92.48c-.47-6.67,1.5-10.12,8.78-6.69,4.22,2,8.44,4,12.74,5.79,3.34,1.41,4.91,3.83,4.75,7.33-.19,4.35-2.84,6.2-7,6.38C1014.57,101.26,1008.28,96.82,1001.89,92.48Z"/><path class="cls-79" d="M927.51,264.84c-.18,6-19.76,17-24.87,13.94-2.84-1.7-4.18-4.66-1.17-6.61a170.63,170.63,0,0,1,20.45-11.25C924.38,259.78,927.51,260.88,927.51,264.84Z"/><path class="cls-80" d="M1280.79,73.48c-1.06,1.18-2.13,2.9-3.66,4-4.15,3-8.6,5.49-12.72,8.49s-9.21,5.21-12.21,0c-3.7-6.44,4.07-4.37,6.33-6.53,4.56-4.36,8.94-9.07,15.75-9.56C1276.77,69.66,1280.06,68.76,1280.79,73.48Z"/><path class="cls-81" d="M262.3,20.35c-4.12,4.68-10.5,6.5-16.34,9.23-4.19,2-7.8,1.32-10.6-2.16a3.29,3.29,0,0,1,.47-4.62,3.25,3.25,0,0,1,.74-.45c7-3.32,13.21-9.36,22-7.09C260.57,15.78,262,17.15,262.3,20.35Z"/><path class="cls-82" d="M57.57,311.05c0-2.37-.11-4.75,0-7.11.24-4.39,3.65-7.23,7-6.32,8.25,2.26,4.14,9.75,4.83,15,.59,4.48-.15,9.05-6,9.82-5,.65-6-2.67-5.92-6.69V311Z"/><path class="cls-83" d="M711.09,112.64c-3.91-.14-6.1-1.07-7-3.57a3.71,3.71,0,0,1,2.16-4.78h.16c7.69-2.89,15.45-5.67,23.3-8.08a6.14,6.14,0,0,1,5.32,1.4c1.48,1.71,0,4.12-1.69,4.94C725.63,106.23,717.77,109.62,711.09,112.64Z"/><path class="cls-84" d="M1151.94,115.25c2.56,0,5.09.78,5,3.7-.08,6.08-5.09,9.41-8.76,13.19-2.57,2.65-6.2,5.21-10.5,2.85-1.26-.69-2.9-1.84-3.12-3C1133.84,127.79,1147.27,115.07,1151.94,115.25Z"/><path class="cls-85" d="M1009.13,210.34c2.37-7.82,7.66-4.57,12.32-3.12,5.49,1.72,8.78,6.49,12.87,10,7.22,6.3,2,7.27-3.73,7.66C1022.51,221.48,1012.76,220.38,1009.13,210.34Z"/><path class="cls-86" d="M836.85,120.09c7.47-2.56,21.07,5.92,21.43,13.38.12,2.58-.75,4.25-3.43,5.46-5.37,2.45-8.13-.26-10.51-4.38C840.71,130.32,834.57,127.39,836.85,120.09Z"/><path class="cls-87" d="M1033.05,284.48c11.2-6.57,18.75,1.61,26.67,7,2.88,2,2.34,5.51-.83,7.84-10.37,1.57-17.43-5.75-25.69-9.72C1031.48,288.82,1031.49,286.29,1033.05,284.48Z"/><path class="cls-88" d="M648.85,119.83c1.9.49,7.22-2,7.49,3,.23,4.21-4.16,6.09-8.47,6.62-5,.62-10,1.67-15.11,2.26-2.36.27-4.93-.09-5.6-3-.62-2.71.88-4.64,3.24-5.58C635.91,120.88,641.57,119.07,648.85,119.83Z"/><path class="cls-89" d="M7.23,91c6.59-7.53,10.94-5.61,12,3.54.9,7.62,2.05,16.27-9.24,18.07C1.64,106.37,4.79,98.64,7.23,91Z"/><path class="cls-90" d="M784.44,86.57c5.18-3.29,10-4,14.11,1.73,3.79,5.28,11.41,9.45,4.7,17.51C792.3,105.83,786.37,99.75,784.44,86.57Z"/><path class="cls-91" d="M563.57,68.06c-.08,3.82-1.68,5.4-4.26,5.94-6,1.25-9-3.2-11-7.14-2.2-4.32-5.18-9.34-1.85-14.55a3.36,3.36,0,0,1,4.65-1,3.23,3.23,0,0,1,.58.47C556.05,57.21,560,63,563.57,68.06Z"/><path class="cls-92" d="M31.11,295c-.41,5.26-16.55,13.31-21.36,10.65a4.16,4.16,0,0,1-1-.64c-1.92-2-2.38-5-.65-6.33,5.8-4.35,11-10.45,19.53-9C30.57,290.16,31.16,292.48,31.11,295Z"/><path class="cls-93" d="M59.68,201.55c7.64-5.8,15.66-3,23.62-1,3,.77,7,1.21,6.76,5.31-.31,4.83-4.64,4.5-8.18,4.74-5.09.22-10-1.46-15.12-1.38C62,209.29,58.19,207.65,59.68,201.55Z"/><path class="cls-94" d="M1061.8,224.9c4.78-.3,8.46-9,14.09-2.15,5.07,6.15,11.81,12.18,4.82,21.17C1069.7,242.25,1066.22,233.11,1061.8,224.9Z"/><path class="cls-95" d="M1405.85,14.86c11-4.82,14.3,1.54,16.17,10.78,1.84,9-2.84,11-10.35,10.62C1407.16,29.82,1404.49,22.89,1405.85,14.86Z"/><path class="cls-96" d="M669.27,73.86c.34-3.29-.14-6.44,1.06-8.7,2.25-4.26,6.64-6.24,11.08-4.18,4,1.87,2.78,6.07,1.55,9.41-.66,1.77-2.66,3.09-3.14,4.86-1.06,3.87-1.43,8.8-6.76,8C667.19,82.3,670.57,76.75,669.27,73.86Z"/><path class="cls-97" d="M75.11,124.48c-2.51,0-4.76-.35-5.28-3.39-.82-4.75,13.53-18.41,18.47-17.53,2.56.46,4.3,1.9,4.27,4.7S78.23,124.29,75.11,124.48Z"/><path class="cls-98" d="M1075.45,80.57c0,2.41-2,3.17-3.64,4.12-3.4,1.93-7,3.55-10.24,5.73-4.09,2.76-9.57,6-12.43,1.53s3.51-6.5,6.79-9c4.37-3.33,8.36-7.21,14.58-6.09C1072.85,77.3,1075.36,77.24,1075.45,80.57Z"/><path class="cls-99" d="M525.85,108c7.44-5.45,15.86-2.61,23.53-1.63,5.36.68,6.23,6.14,2.92,11-7.24,1.38-14.14-1.82-21.39-1.54C526.71,116,523.77,113.06,525.85,108Z"/><path class="cls-100" d="M553.19,23.48c.06,6-1.75,12.5-9.91,13.49-4.22.51-6.59-3.7-5-7.32,2.4-5.49,2.32-13.63,10.51-14.5C553.09,14.72,554.79,18.1,553.19,23.48Z"/><path class="cls-101" d="M98.08,255.79c3.6-3.65,2-14.81,10.65-10.43,8.12,4.11,2.19,11.33-.22,17.45-1.67,4.24-4.17,5.28-8,5.13C92.81,265.23,96,260.4,98.08,255.79Z"/><path class="cls-102" d="M514,65c16.25-9,11,10.47,18,14.55,4.17,2.43-5.38,3.9-7.89,6.76C516.3,81.29,511.48,74.88,514,65Z"/><path class="cls-103" d="M1171.57,444.41c.14-1.52.29-3.05.43-4.58,9.57-15.35,12.66-33.35,20.57-50.58,1.93,8.85-1,16.53-4,23.49a239.84,239.84,0,0,0-10,27.52C1177.79,443,1177.28,448.84,1171.57,444.41Z"/><path class="cls-104" d="M1312.74,98c2.1-3.34,4.73-5.61,8.79-3.28,3.25,1.85,3.78,5.35,3,8.4-1.57,5.71-.67,13.39-9.56,14.34-6-.16-7.65-4.13-5.68-8.61C1310.81,105.32,1310.91,101.42,1312.74,98Z"/><path class="cls-105" d="M320.34,53.26c11.4-8.34,12.34,4.82,17.14,8.92,3.8,3.25,4.43,8.51-2.76,10.27C324.57,70.29,319.31,63.3,320.34,53.26Z"/><path class="cls-106" d="M1322.26,31.05c.31,6.48-15.37,16.93-20.69,14.43-.67-.32-1.82-.82-1.81-1.23.1-8.62,9.2-9.81,13.07-15.48,1.86-2.73,5.53-3,8.34-.33A6.55,6.55,0,0,1,1322.26,31.05Z"/><path class="cls-107" d="M275.2,210.83c-.25,5.47.23,11.49-7.26,11.43-6.14,0-6.33-5.87-6-9.66.41-4.68.8-11.14,8-11.16C276.92,201.42,274.57,207.27,275.2,210.83Z"/><path class="cls-108" d="M375.47,104.48c-2.11-6.61,1.53-7.16,6.73-6.72,5.74.47,10.53,3.4,15.73,5.28,2.72,1,5.76,1.87,5.34,5.31-.4,3.23-3.32,4.14-6.29,4.35A54.51,54.51,0,0,1,375.47,104.48Z"/><path class="cls-109" d="M635.91,256.1c.24,4-.4,6.42-4.13,6.79-3.28.33-14.12-12.41-14.24-16.77-.09-2.94,1.46-4.87,4.14-4.43C630.26,243.1,633,250.3,635.91,256.1Z"/><path class="cls-110" d="M153.22,210.75c1.37.19,3.49.18,4.11,2.63a3.6,3.6,0,0,1-1.62,4c-5.08,3.69-10,7.55-15.21,11.1a5,5,0,0,1-7-.87,4.15,4.15,0,0,1-.3-.43c-2.21-3.13,0-5.26,2.53-6.61C141.48,217.48,145.06,210.66,153.22,210.75Z"/><path class="cls-111" d="M1028.57,80.28c-5.53-3.54-11.88-7.53-16.39-13.45-1.61-2.12-.79-5.62,2.88-6.26a10.48,10.48,0,0,1,11.06,5c2.64,4.08,8.17,6.79,6.65,13C1032.32,80.17,1031.26,81.28,1028.57,80.28Z"/><path class="cls-112" d="M375.82,174.56a53.33,53.33,0,0,1-18.19-13.65c-3.07-3.66,1.41-5.39,4.8-5,7.94,1,12.59,7.62,18.63,11.83a3.08,3.08,0,0,1,.39,4.29C380.24,173.85,378.57,174.63,375.82,174.56Z"/><path class="cls-113" d="M1193.82,277.75c5.18-6.12,11.22-9.89,17.22-13.58,3.27-2,7.28-2.13,9.32,1.81,2.13,4.11-1.48,5.2-4.46,6.59C1209.19,275.72,1203.93,283.94,1193.82,277.75Z"/><path class="cls-114" d="M920.25,177.15c1.07-5.61,4.76-5.08,8.93-4,7.37,1.93,5.39,8.61,6.94,13.43,1.8,5.55-2,6.73-6.27,7.28C922.68,190.57,918.77,185.4,920.25,177.15Z"/><path class="cls-115" d="M1165.14,60.48c5.15,2.89,11,6.12,16.76,9.47a3.27,3.27,0,0,1,1.11,2c.56,2.91-.82,4.93-3.68,4.72-8.12-.6-15.14-3.82-20-10.54-1.79-2.49,0-4.46,2.53-5.46A14.4,14.4,0,0,1,1165.14,60.48Z"/><path class="cls-116" d="M1312.89,160.05c-.63,5,1.27,11.69-6.55,11.79-5.29.07-6.39-5-5.16-8.74,1.62-5-1.45-13.76,7-14C1315.65,148.93,1311.68,156.28,1312.89,160.05Z"/><path class="cls-117" d="M607.37,17.08c7.67-6.26,12.49,1,16.76,4.68s4.24,9.67,0,14.54c-.63.5-1.55,1.2-2,.92C614.8,32.28,609.57,25.79,607.37,17.08Z"/><path class="cls-118" d="M1387.57,272.53c4.58,1.5,7.45,3.4,4.19,7.77a18.9,18.9,0,0,1-5.45,4.41c-4.47,2.69-7.23,9.33-14.08,6.56a3.36,3.36,0,0,1-1.77-4.4,4,4,0,0,1,.39-.67C1375.09,279.85,1381.63,276.3,1387.57,272.53Z"/><path class="cls-119" d="M341.23,283.94c-.07,2.72-1.36,4.44-4.19,4.53-4,.12-14.33-13.13-13.78-17.53.32-2.62,1.74-4.36,4.41-4.61C331.57,266,341.45,278.94,341.23,283.94Z"/><path class="cls-120" d="M1441.44,251c4.86,2.23,6.65,6.14,3.89,10.59-3.51,5.67-5.84,13.78-15.55,11C1426.83,262,1431,254.25,1441.44,251Z"/><path class="cls-112" d="M840.88,112.32a3.31,3.31,0,0,1-3.6-2.45c-1.23-4.39.63-8.08,3.75-10.64,3.44-2.83,4.7-9,11-7.75a4.15,4.15,0,0,1,3.77,3.9C856.2,98.8,844.16,112.48,840.88,112.32Z"/><path class="cls-121" d="M1322.05,205.76c2.38-4.36,5.29-5.41,9.18-1.63,5,4.88,4.28,15.41-1.59,20.92-6,2.67-6.24-2.41-7.41-5.73A19.76,19.76,0,0,1,1322.05,205.76Z"/><path class="cls-122" d="M1277.87,211.56c-3.24,3.25-6.6,6.94-11.11,3.31-5-4-11.39-7-13.7-13.74-.37-1.07.61-3.36,1.65-4,2.22-1.4,4.49-.37,6.47,1.22C1266.69,202.73,1272.23,207.09,1277.87,211.56Z"/><path class="cls-123" d="M1190.31,189.36c1.46-4.65-2.22-12.37,5.44-11.42,9.09,1.13,3.31,10.65,6.08,15.92,1.89,3.59-1.41,7.11-5.72,6.87C1187.14,200.24,1192.72,192.65,1190.31,189.36Z"/><path class="cls-124" d="M128.87,174.79c13.5-7.65,11.33,7.26,16.21,11.64,5.64,5.06-1.92,5.37-3.93,7.64C131.83,191.26,127.78,184.89,128.87,174.79Z"/><path class="cls-125" d="M664.11,162.38c-.48,5.35-18.69,15.81-22.62,14.33-2.33-.87-3-2.55-2.36-4.63,1.48-4.92,17.53-13.13,22.22-11.59C663,161,664.22,161.69,664.11,162.38Z"/><path class="cls-126" d="M441.69,161c-5.44,3.15-5.63,11.89-12.5,15.3-2.34,1.15-5.11.76-6.21-1.65-1.74-3.79.69-7.79,3.14-9.44,4.54-3.07,6-11.2,13.8-9C441.57,156.58,442.44,157.94,441.69,161Z"/><path class="cls-127" d="M233.4,79.4c8.61-5,15.46-9.13,22.38-13.09,2.38-1.36,4.55-.66,6.18,1.49a3,3,0,0,1-.28,4.23h0C253.88,77.2,246.8,85,233.4,79.4Z"/><path class="cls-128" d="M100.15,293.91c.2-6.59,4.6-9.32,9.08-5.54,4.92,4.17,19.88,1.11,12.8,15.31C113.23,303.81,105.36,301.82,100.15,293.91Z"/><path class="cls-129" d="M1184.12,17.13c3.83.23,5.77.55,6.24,3a4.66,4.66,0,0,1-2.16,5.1c-4.74,2.81-9.65,5.33-14.44,8-1.7,1-3.27,2.47-5.19.65s-1.92-4.22-.56-6.42C1172.11,20.89,1180.2,21.12,1184.12,17.13Z"/><path class="cls-130" d="M181.93,315c-2.4,4.2.68,12.33-6.45,14-4.83,1.13-6.54-4.57-5.23-8.35,1.72-4.95-1.23-13.08,7.08-14.13C182.66,305.89,181.57,311,181.93,315Z"/><path class="cls-131" d="M1382.38,184.93c-1.24,3.72,2.33,10.34-4.28,10.33-7.35,0-6-7-5.82-11.76.17-4.08-2.52-11.07,5-10.65C1385.35,173.29,1380.82,180.77,1382.38,184.93Z"/><path class="cls-132" d="M1356.57,57.83c-3.81-.24-6.51.41-7.45-2.6s1-4.26,3.26-5.38a10.73,10.73,0,0,1,2.11-1c6.29-1.63,12.28-5,19.07-3.51.43.09,1,3.28.32,4.06C1369,55.13,1361.34,54.89,1356.57,57.83Z"/><path class="cls-133" d="M1350.27,303.68c-1.24,5.48-2.41,10.57-9.58,9.6-2.65-.36-7.32-.77-5.57-3.75,3-5.08,3.14-13.38,9.91-14.56C1349.72,294.15,1348.75,300.71,1350.27,303.68Z"/><path class="cls-134" d="M55,7.72c3.84.3,12.94,15.67,11.64,18.67-1.2,2.75-4.7,3.58-5.62,2.13-3.55-5.62-9.65-9.87-10.31-17C50.42,8.53,53,7.79,55,7.72Z"/><path class="cls-135" d="M10.62,209.54c-.52-.23-2-.39-2.39-1.13-2.56-5,.24-9,4.1-10.68,4.85-2.07,7.59-10.39,14.91-5.63a2.63,2.63,0,0,1,.72,2C22.07,198.86,19.77,207.57,10.62,209.54Z"/><path class="cls-136" d="M373,269.15c10.82-11.16,13.26-29.46,28.87-36.52C390.18,243.22,386.94,260.59,373,269.15Z"/><path class="cls-137" d="M895.66,233.78c-2.73,7.63-10.24,5.8-15.86,7.46a3.22,3.22,0,0,1-4-4.23c2.11-7.23,8.08-7.73,14.28-7.32C892.64,229.86,896,229.19,895.66,233.78Z"/><path class="cls-138" d="M1470.34,104.73c-3.3,3.67-5,9.49-11.42,10.13-3.37.33-5.29-1.51-5-4.92.47-5.65,3.23-9.91,9.07-10.72C1466.14,98.77,1469,100.48,1470.34,104.73Z"/><path class="cls-139" d="M1492.57,105.77c-3-1.45-9.09,2.54-8.72-4.21.31-5.54,5.36-5.84,9.9-5.64,4.32.19,10-.1,9.47,5.81C1502.57,108.05,1496.28,104.48,1492.57,105.77Z"/><path class="cls-140" d="M560.72,158.37c4.55,1.24,5.67,5,5.88,9.06.23,4.5-2.4,8.36-6.51,8.62-5.59.35-5.14-4.8-5.26-8.72C554.71,163.11,555.42,159.33,560.72,158.37Z"/><path class="cls-141" d="M442.27,26.22c.75-5,.94-10.14,6.26-10.84,4.36-.56,6.07,3.26,5.7,7.24-.49,5.1-2.91,9.62-8.33,10.07S443.72,28,442.27,26.22Z"/><path class="cls-142" d="M176.42,18.22c4.7-4.57,10.42-3.34,15.82-3.43,3.5-.06,6.42.94,6,5.27s-4,4.21-7.07,4.26C185.44,24.48,180.65,22.08,176.42,18.22Z"/><path class="cls-143" d="M353.35,44.58c-2.1,2.74-.53,8.33-5.65,7.93-4.93-.4-7.61-5-11-8.15,2.63-2.81,4.73-6.24,9.54-5.7C350.16,39.1,353.11,40.11,353.35,44.58Z"/><path class="cls-144" d="M787.65,117.57c5,.07,8.28,1.53,8.23,5.92s-3.32,6.46-7.24,5.63-10.25-.47-10.21-5.34C778.46,119.24,784.69,118.93,787.65,117.57Z"/><path class="cls-145" d="M856.06,64.48c0-4.75,1.08-8.5,5.44-8.52,5.07,0,6.21,4.47,5.94,8.36s-2,7.89-7.19,7.41C854.82,71.21,856.71,66.66,856.06,64.48Z"/><path class="cls-146" d="M492.57,253.13c-3.49.13-5-1.86-4.39-4.39,1.25-4.93,3.73-9.74,9.44-10,3.64-.19,4.68,3.34,4.63,6.86C502.16,252.54,495.88,251.09,492.57,253.13Z"/><path class="cls-147" d="M474.36,45c8.63-1.58,14.8-3.9,19.71,1,2.24,2.24-.17,7-2.73,8C483.57,57,481.74,48.7,474.36,45Z"/><path class="cls-148" d="M595.13,102.72c-1.07,4.81-3.71,8.77-9.17,9.11-3.09.19-7.25-1.48-6.64-5.17.92-5.48,6.85-5.91,11-7.68C592.87,97.93,595,99.26,595.13,102.72Z"/><path class="cls-149" d="M1085.39,191.09c-4.28,0-4.79-2.79-4.53-5.58.42-4.53.34-10,6.8-10.15,3.63,0,5.08,3.23,4.92,6.68C1092.36,186.89,1089.51,189.72,1085.39,191.09Z"/><path class="cls-150" d="M1222,72c5.25,0,9.89,1.41,10.67,7,.43,3.09-3.73,4.86-5.87,4.1-4.15-1.45-9.82-2.61-11.15-7S1219.28,72.48,1222,72Z"/><path class="cls-151" d="M212,172.38c-4.07-.31-8.64-1.07-8.05-6.14.55-4.75,5.42-3.22,8.65-3.39,3.54-.18,7.48-.15,7.2,5.06S215.39,172.19,212,172.38Z"/><path class="cls-152" d="M1065.4,247.7c-2.38,3.39-4.79,7.37-9.57,7.76-3.73.31-6.15-2.31-5.59-6,.91-5.94,5.83-5.59,10.23-5.42C1062.69,244.11,1065.57,243.67,1065.4,247.7Z"/><path class="cls-153" d="M949.1,135.82c-1.32,3.84-2.15,7.94-7.37,7.65-4.43-.25-4.39-3.6-4.29-6.76.13-3.91,1.72-7,6.1-6.9C947.27,129.85,948.8,132.48,949.1,135.82Z"/><path class="cls-154" d="M1212.57,244.9c1.45-5.13-6.64-11,2.55-14.79,2.55-1,5.72-.51,6.41,3.11C1222.7,239.58,1220.67,243.92,1212.57,244.9Z"/><path class="cls-155" d="M823.57,14.85c3.71,1.88,10,.76,11.57,5.69,1,3.29-4.7,5.73-6.49,4.66-3.86-2.28-10.19-1.65-11.46-6.74C816.4,15.16,820.49,15,823.57,14.85Z"/><path class="cls-156" d="M1226.42,384.48c-4.42.06-4.55-2.79-4.53-5.68,0-4.53,1.77-7.73,6.79-8,2.63-.14,5.17.76,4.61,3.84C1232.57,378.87,1231.11,383.1,1226.42,384.48Z"/><path class="cls-157" d="M1068.57,183c-.48,3.33-2.1,5.74-5.27,5.55-5.13-.31-5.66-4.81-6.29-8.58-.56-3.33,1.39-5.25,4.82-5C1067,175.29,1067.57,179.48,1068.57,183Z"/><path class="cls-158" d="M100.15,293.91c6.41,5.23,14.35,7,21.88,9.77-6.84,2.35-25-3.29-27.73-8.81-.53-1.1-.23-3.73.51-4.11C97.85,289.14,98.16,293.1,100.15,293.91Z"/><path class="cls-159" d="M1159.64,213.85c.19-4.16,1.5-7.71,6-7.45s3.33,4.45,3.61,7.4c.44,4.59-2.32,6.7-6.29,6.8C1157.31,220.74,1160.65,216,1159.64,213.85Z"/><path class="cls-160" d="M375.5,59.06c-.2,3.89-1,7.65-5.61,7.71-4.82.06-3.64-4.13-4-7.07-.48-4.38,1.6-6.8,5.89-7.09C377.41,52.24,374.71,56.72,375.5,59.06Z"/><path class="cls-161" d="M488.33,157.16c6.56-4.26,12.12-5.88,17.64-2,1.78,1.25,1.67,5-.57,6.32C498.77,165.25,494.66,159.4,488.33,157.16Z"/><path class="cls-162" d="M784.44,86.57c4.33,8.31,7.75,17.49,18.81,19.23-8.94,2.47-23.94-8.84-22.68-17.32C780.63,87.67,783.08,87.2,784.44,86.57Z"/><path class="cls-163" d="M301.38,45.84c-.24,3.27-1.45,6.81-5.88,6.53s-3.57-4.29-3.67-7.25c-.11-3.35.51-6.32,4.88-6.25S301.44,42,301.38,45.84Z"/><path class="cls-164" d="M1039.72,143.86c-1.6,4.55-5.81,5.88-10.12,6.58a2.9,2.9,0,0,1-3.41-2.28h0a2.82,2.82,0,0,1,.09-1.47c1.14-4.72,4.25-7.5,9.28-7.55C1038.39,139.11,1040,140.48,1039.72,143.86Z"/><path class="cls-165" d="M1250.57,35.91c-.24,3.09.36,6.79-4.2,7.25s-5.31-2.47-5.2-6.07c.12-3.88,1.07-7.5,5.75-7.45C1250.8,29.69,1250.35,33.18,1250.57,35.91Z"/><path class="cls-166" d="M669.43,17.42c7.21-6.24,12,1.46,15.63,4.45,3.41,2.85-1.1,6.6-5.62,7.23C674.74,26.37,670.62,23.15,669.43,17.42Z"/><path class="cls-167" d="M1480.35,263c3.38,1,7.9,1,8.12,5.43.15,3.15-3.42,4.82-6.11,3.54-3.53-1.68-10.13,0-10-6C1472.5,262.33,1477.36,263.36,1480.35,263Z"/><path class="cls-168" d="M1441.44,251c-9.11,4.4-11.28,12.53-11.66,21.63-7.44-1.62-6.21-7.76-3.17-10.54C1431.06,258,1429.57,245,1441.44,251Z"/><path class="cls-169" d="M210.85,330.24c-1.44,4.55,2.32,6.54,4.57,9.28-3.91-.48-9.53,1.56-9.61-5.22-.09-7-2.66-15.28,6.92-18.9l.16.28C216.07,321.07,214.3,325.77,210.85,330.24Z"/><path class="cls-170" d="M1147.67,51.87c.45,4.22-2.16,6.66-5.9,7.22-4.37.66-3.51-3.21-3.57-5.69-.09-3.54-.21-7.43,5.1-7.31C1147,46.17,1147.66,48.71,1147.67,51.87Z"/><path class="cls-171" d="M320.34,53.26c1,9.2,6.67,15,14.38,19.18-12.61,6.49-11.67-8.24-17.9-11.87C314,58.94,315,53.86,320.34,53.26Z"/><path class="cls-172" d="M351.36,358.66c1.34,8.06,1.34,16.95,12,19.15-12.39,7.8-11.45-6.2-16-10.42C344.49,364.7,344.05,358.9,351.36,358.66Z"/><path class="cls-173" d="M124,69.61c2.2,7.37-3.94,17.65,7.61,21.75-6.15,4.77-9.16,1.5-10.37-4.46S116.41,74.3,124,69.61Z"/><path class="cls-174" d="M537.5,170.12c-.87,2.91-2.57,3.94-5.32,2.93-3.75-1.37-9.56-.74-9.41-6.33.06-2.29,4.57-4.12,7.85-3.4A8.58,8.58,0,0,1,537.5,170.12Z"/><path class="cls-175" d="M59.57,258.53c-1.89,2.75-.49,8.13-5.65,8.74-3.23.38-5.15-1.77-4.12-5.2s-.3-8.49,5.78-8.31C58.37,253.84,59.74,255.36,59.57,258.53Z"/><path class="cls-176" d="M525.85,108c.66,5.4,4.17,7.23,9.09,7,6-.31,11.67.92,17.36,2.43-9.5,4.29-18.78.12-27.8-1.67C520.51,114.93,519.47,109.69,525.85,108Z"/><path class="cls-177" d="M1061.8,224.9c7.34,5.32,10.12,15.15,18.91,19C1070.86,244.72,1060.45,234.24,1061.8,224.9Z"/><path class="cls-178" d="M74.57,365.9a8.74,8.74,0,0,1,8.22,6.4,3.8,3.8,0,0,1-2.51,4.75,4,4,0,0,1-1.13.17c-5.46.31-6.84-4.55-8.61-8.15C69.49,366.86,71.89,365.93,74.57,365.9Z"/><path class="cls-179" d="M222.05,254.19c2.23,1.66,4.07,3,5.82,4.35,2.36,1.89,5.61,3.25,5.38,7-.12,2-2,2.16-3.53,2.27-4.28.28-6.24-2.55-7.79-5.92C221,259.79,219.57,257.75,222.05,254.19Z"/><path class="cls-180" d="M808.06,61.94c-1.07,3.92-3.6,6.74-7.89,7.39-2.58.4-5.2-1.2-5.27-3.61-.18-6.17,5.71-5.36,9.33-7C806.63,57.7,807.74,59.48,808.06,61.94Z"/><path class="cls-181" d="M514,65c-.3,8.85,6,14.57,10.13,21.31-12.39,2.28-8.94-11.14-15-15.6C505.89,68.39,512,66.83,514,65Z"/><path class="cls-182" d="M1033.05,284.48c6.06,9.38,16,12.07,25.84,14.84-11.5,4.56-18.8-4.29-27.29-8.87C1029.63,289.41,1030.8,286.13,1033.05,284.48Z"/><path class="cls-183" d="M958.72,61.28c0,2.81-.29,5.71-3.29,5.4-4.89-.52-5.4-4.94-5.89-8.74-.32-2.51.72-5,3.8-4.39C957.57,54.38,957.82,58.33,958.72,61.28Z"/><path class="cls-184" d="M1192,68.78c-2.56.27-3.82-1.27-3.23-3.39,1.24-4.46,4.28-7.24,9.14-7.48,2.1-.1,4.37.76,3.64,3.12C1200.2,65.48,1196,67.13,1192,68.78Z"/><path class="cls-185" d="M7.23,91c1.08,7.18-2.14,14.91,2.77,21.61-3.57.1-7.73.18-7.25-4.8C3.3,102.06-1.43,94.66,7.23,91Z"/><path class="cls-186" d="M1312.74,98c2.82,6.25-7.38,14,2.18,19.46-2.34,3.2-5.52,3.09-8,.88s-2.13-6.08-1-8.74C1307.57,105.48,1310.4,101.88,1312.74,98Z"/><path class="cls-187" d="M128.87,174.79c1.43,8.11,3.89,15.58,12.28,19.28-11.9,6.25-9.33-7.87-14.87-11C122.93,181.25,123,176.11,128.87,174.79Z"/><path class="cls-188" d="M1177,497.94c3.94,1.4,4.3,4.51,4.18,7.77s-.58,7.27-4.64,6.67c-4.27-.63-2.36-5.1-2.55-7.94C1173.81,501.88,1173.36,498.75,1177,497.94Z"/><path class="cls-189" d="M1129.14,85.73c-2.44,1.79-3,2.62-3.66,2.62-4.91.06-9.42,4.89-14.53,1.3-.46-.32-.39-2.56.16-3C1116.22,82.65,1121.68,83.48,1129.14,85.73Z"/><path class="cls-190" d="M69.67,62.21c-.39,2.79.67,6.87-4.12,6.84-3.09,0-3.36-2.94-3.24-5.32.14-3-1-7.12,3.44-7.59C69.57,55.74,69.49,59.3,69.67,62.21Z"/><path class="cls-191" d="M301.2,215.9c.1,10.32,10.31,13.56,14.68,20.9C304.73,235.7,298.21,226.41,301.2,215.9Z"/><path class="cls-192" d="M1405.85,14.86c1.76,7.18,6.2,13.63,5.81,21.4C1401.1,31.48,1402.2,23.48,1405.85,14.86Z"/><path class="cls-193" d="M827.2,203.62c2.92-4,6-2.63,8.74,0,3,2.86,5.26,6,1,9.67C830.91,212.84,825.71,211.57,827.2,203.62Z"/><path class="cls-194" d="M1050.09,31.54c5.84,5.26,8.74,14.26,18.52,14.5-9.7,3-20.75-5.15-20.46-15.09a1.71,1.71,0,0,1,1-.12C1049.57,30.94,1049.79,31.29,1050.09,31.54Z"/><path class="cls-195" d="M143.86,41c-2.58-.18-4.74-1-3.81-3.43a8.56,8.56,0,0,1,8.11-5.82c2-.08,4.65.37,4,2.8C151.16,38.69,147.82,40.78,143.86,41Z"/><path class="cls-196" d="M1009.13,210.34c5.58,7.17,14.81,9,21.46,14.59C1019.82,225.74,1010.57,219.42,1009.13,210.34Z"/><path class="cls-197" d="M920.25,177.15c.85,6.92,6.48,11.1,9.6,16.72.1,2.13-.29,4.43-2.94,2.54C920.27,191.65,915.57,185.93,920.25,177.15Z"/><path class="cls-198" d="M765.68,57.6c-5.51.15-5.17-4.29-6.36-7.28s.35-4.58,3.33-4.13c4.39.66,4.72,4.51,5.58,7.89C768.9,56.71,767.65,57.6,765.68,57.6Z"/><path class="cls-199" d="M607.37,17.08c5.94,6.09,7.34,16.12,16.73,19.22-.22.31-.42.88-.67.91C615.26,38.12,605.23,25.48,607.37,17.08Z"/><path class="cls-200" d="M153.57,144.15c5.53.65,4.68,5.2,6.06,8,1,2.14,1,5.21-2.3,5.18-6-.06-3.48-5.87-5.2-8.87C150.94,146.48,152.15,145,153.57,144.15Z"/><path class="cls-201" d="M935.94,165.55c-5.4,1.49-10.26,6.43-17.79,2.5C924.57,164.67,929.57,161.59,935.94,165.55Z"/><path class="cls-202" d="M1121.12,220.58c-1.66,5.72-2.2,10.46-8.16,11.15-.8.09-2.55-1.17-2.52-1.74C1110.71,224.48,1113.84,221.6,1121.12,220.58Z"/><path class="cls-203" d="M443.35,86.53c-7.92,4.08-11.84-.48-16.47-2.18C432.57,79.78,437.07,82.15,443.35,86.53Z"/><path class="cls-204" d="M588.87,219.14c.66-1.54.83-3.1,1.55-3.42,3.87-1.7,5.44-7.15,10.57-6.52.57.07,1.58,2.42,1.26,2.83C599,216.18,595.91,220.81,588.87,219.14Z"/><path class="cls-205" d="M511.26,190.55c-6,1.8-7.68,9-14,7.2-1.83-.52-1.67-3.17-.43-3.85C500.75,191.69,503.57,185.48,511.26,190.55Z"/><path class="cls-206" d="M1465.76,165c4.08-3.13,6.52-1.79,8.46.25,2.09,2.21,8.13,3.14,4.66,7.5-2.72,3.42-5.12-1.14-7.35-2.84C1469.76,168.53,1468.12,167,1465.76,165Z"/><path class="cls-207" d="M59.68,201.55c.82,5.28,4.43,6.33,9.12,6.59,4.41.24,9.28-1.29,13.07,2.45-7,4.14-13.67-.56-20.43-1.11C57.84,209.19,55.7,205.26,59.68,201.55Z"/><path class="cls-208" d="M48.83,153.38c8.4-4,12.62-.43,19.68,2.19C60.51,159.69,56.11,156,48.83,153.38Z"/><path class="cls-209" d="M1351.13,252.25c3.06,7.36,3.22,11.72-1.5,14.81-.9.59-2.8-.35-4.24-.58C1347,262.48,1348.57,258.53,1351.13,252.25Z"/><path class="cls-210" d="M1422.57,292.11c5,2.23,8.77,5.26,7.33,11.57-7.25.71-7.51-7.12-11.73-10.28C1416.22,292,1420.94,292.64,1422.57,292.11Z"/><path class="cls-211" d="M1066.29,275.74c1.34-6.4,3.91-9.91,9.72-9.63.62,0,1.87,2.09,1.62,2.54C1075.31,272.85,1071.65,274.91,1066.29,275.74Z"/><path class="cls-212" d="M90.1,179.48c8.69-2,8.69-2,16.37,2C100.91,183.18,100.91,183.18,90.1,179.48Z"/><path class="cls-213" d="M98.08,255.79c.86,4-1.45,8.7,2.39,12.15-2.59,3.45-6.7,2.73-7.21-.19C92.57,263.58,91,257.48,98.08,255.79Z"/><path class="cls-214" d="M1322.05,205.76c1.09,7-1,15.25,7.59,19.29-4.59,4.63-7.08,1.35-8.31-2.74C1319.69,216.86,1317.89,211.09,1322.05,205.76Z"/><path class="cls-215" d="M121.38,337c-7.06,2.65-11,5.88-17.67,4.15C108.76,337.54,112.15,332.78,121.38,337Z"/><path class="cls-216" d="M375.47,104.48c7.43,2.07,14.78,4.35,21.51,8.22C387.86,115.06,381.24,110.87,375.47,104.48Z"/><path class="cls-217" d="M393.57,145.54c-3,4.46-6.84,6.44-13.33,6.86C383.21,145,388.73,145.54,393.57,145.54Z"/><path class="cls-218" d="M1001.89,92.48c7.69,2.4,14.3,6.4,19.32,12.81C1012.57,104.39,1006.77,99.09,1001.89,92.48Z"/><path class="cls-219" d="M1311.57,73.78c1.73-5.13,5.36-7.13,9.89-7.35,1.57-.08,2.65,1.73,1.46,3.46C1320.14,73.86,1316.45,75.15,1311.57,73.78Z"/><path class="cls-220" d="M282.14,150.39c3,2.72,8.38,2.72,8.86,7.81.05.53-1.66,1.86-2.35,1.73C283.8,159,282.62,155,282.14,150.39Z"/><path class="cls-221" d="M1429.83,303.63c5.21,3.67,11.37,6.15,14.78,12C1436.78,315.21,1431.76,311.32,1429.83,303.63Z"/><path class="cls-222" d="M669.43,17.42l10,11.68C673.1,27.77,666.63,26.56,669.43,17.42Z"/><path class="cls-223" d="M721.29,194.76c4.57,6.72,3.5,10.62,1.62,16.68C718.57,205.72,719.68,201.67,721.29,194.76Z"/><path class="cls-224" d="M274.44,158.65c-3.45,6-7.22,7.24-12.82,5.78C264.57,159.1,268.25,157.48,274.44,158.65Z"/><path class="cls-225" d="M177.64,98.86c-2.06,5.86-5.38,9.3-12,6.35Z"/><path class="cls-226" d="M1440.94,20.8c6.67.91,11.29,1.22,14,7.33C1449.68,27.31,1445,27.36,1440.94,20.8Z"/><path class="cls-227" d="M827.2,203.62c.57,5.89,6,6.88,9.7,9.69-2.65,6.83-5.88,1.1-7.71-.23C826.25,211,822.57,207.85,827.2,203.62Z"/><path class="cls-228" d="M1245.49,303.42c3.26,4.66,3.41,7.85.32,12.23C1242.77,311.64,1242.57,308.48,1245.49,303.42Z"/><path class="cls-229" d="M836.85,120.09c-.33,6.28,7,8.62,7.48,14.46C837.18,132.14,832.93,128.22,836.85,120.09Z"/><path class="cls-230" d="M550,200.3c-6.38-.82-6.91-4.82-6.38-10.57C549.68,191.76,546.57,197.86,550,200.3Z"/><path class="cls-231" d="M250.75,274.21c4.72.23,9.26.8,13.63,4.57C258,280.86,254.19,277.92,250.75,274.21Z"/><path class="cls-232" d="M512.33,24.2c-8.18-.14-11.2-3.41-15.23-8.38C504.44,15.75,506.28,20.83,512.33,24.2Z"/><path class="cls-233" d="M1269.57,258.15c-6.72,1.08-8.74-3.08-10-8.28Z"/><path class="cls-234" d="M449,92c3.76,5.87,3.72,9.12,1.27,13.06C445.71,101.69,447.29,98.19,449,92Z"/><path class="cls-235" d="M210.85,330.24c-1-5.09,1.38-9.7,2-14.56,8.52-.62,10,5.15,9,11.33C220.77,334.63,217,337.67,210.85,330.24Z"/></svg>