<svg id="Layer_1" data-name="Layer 1" xmlns="http://www.w3.org/2000/svg" viewBox="0 0 1392.31 592.51"><defs><style>.cls-1{fill:#f5cbce;}.cls-2{fill:#f3bdc5;}.cls-3{fill:#f4ccd3;}.cls-4{fill:#f4ced4;}.cls-5{fill:#f8dad2;}.cls-6{fill:#f7dcb4;}.cls-7{fill:#f4d0d3;}.cls-8{fill:#f7d7b2;}.cls-9{fill:#f6dfd6;}.cls-10{fill:#f1a6b5;}.cls-11{fill:#f0a2b4;}.cls-12{fill:#f1a4b4;}.cls-13{fill:#f7d8d0;}.cls-14{fill:#f1b0ba;}.cls-15{fill:#f1aeb9;}.cls-16{fill:#f1a6b4;}.cls-17{fill:#f5d5cf;}.cls-18{fill:#f7dcd4;}.cls-19{fill:#f6d6d0;}.cls-20{fill:#f6d3cd;}.cls-21{fill:#f1a9b5;}.cls-22{fill:#f7d7d1;}.cls-23{fill:#f2b6be;}.cls-24{fill:#f8ded2;}.cls-25{fill:#f3b8bf;}.cls-26{fill:#f6d6bb;}.cls-27{fill:#f8d9d2;}.cls-28{fill:#f8d9b7;}.cls-29{fill:#f8d8b6;}.cls-30{fill:#f2b7c2;}.cls-31{fill:#f8dcc2;}.cls-32{fill:#f7d8b8;}.cls-33{fill:#f8dab5;}.cls-34{fill:#f7dbb6;}.cls-35{fill:#f3b6bf;}.cls-36{fill:#f3b5c1;}.cls-37{fill:#f2b9c1;}.cls-38{fill:#f9ddb8;}.cls-39{fill:#f6e1d5;}.cls-40{fill:#f8e0c0;}.cls-41{fill:#f3b8c3;}.cls-42{fill:#f3b8c2;}.cls-43{fill:#f8e0c2;}.cls-44{fill:#f2b7c0;}.cls-45{fill:#f3bac3;}.cls-46{fill:#f8ddb7;}.cls-47{fill:#f2b3bf;}.cls-48{fill:#f3bac5;}.cls-49{fill:#f8dfb6;}.cls-50{fill:#f3b5c2;}.cls-51{fill:#f6e0d5;}.cls-52{fill:#f8ded4;}.cls-53{fill:#f9e7c0;}.cls-54{fill:#f2b9c2;}.cls-55{fill:#f7dbb8;}.cls-56{fill:#f8e1c1;}.cls-57{fill:#f2bbc1;}.cls-58{fill:#f8ddb5;}.cls-59{fill:#f8e3c1;}.cls-60{fill:#f1a6b7;}.cls-61{fill:#f2b4c0;}.cls-62{fill:#f5dfd4;}.cls-63{fill:#f9e3c2;}.cls-64{fill:#f9e6c2;}.cls-65{fill:#f8e2d5;}.cls-66{fill:#f9e4c2;}.cls-67{fill:#f0a5b6;}.cls-68{fill:#f8e4c0;}.cls-69{fill:#f8dfb4;}.cls-70{fill:#f0a5b8;}.cls-71{fill:#f9e0b1;}.cls-72{fill:#f8ebbe;}.cls-73{fill:#fae7c1;}.cls-74{fill:#f5e3d6;}.cls-75{fill:#f0a3b7;}.cls-76{fill:#f1a7b7;}.cls-77{fill:#f1a6b9;}.cls-78{fill:#f9e4c1;}.cls-79{fill:#f8deb5;}.cls-80{fill:#f1a5b9;}.cls-81{fill:#fae8bf;}.cls-82{fill:#f7e2d6;}.cls-83{fill:#f9e5c1;}.cls-84{fill:#f1a5b8;}.cls-85{fill:#f0a4b5;}.cls-86{fill:#f0a4b7;}.cls-87{fill:#f1a5b6;}.cls-88{fill:#f5e2d6;}.cls-89{fill:#f3e3d6;}.cls-90{fill:#f1a8ba;}.cls-91{fill:#f7d8bb;}.cls-92{fill:#f6d1bc;}.cls-93{fill:#f7d6c2;}.cls-94{fill:#f6cdbf;}.cls-95{fill:#f6d6c2;}.cls-96{fill:#f6ceb9;}.cls-97{fill:#f5cfbb;}.cls-98{fill:#f7d1bb;}.cls-99{fill:#f7d3be;}.cls-100{fill:#f5cbb8;}.cls-101{fill:#f6d3cf;}.cls-102{fill:#f7d8d1;}.cls-103{fill:#f7d6b7;}.cls-104{fill:#f6d3bc;}.cls-105{fill:#f7d4ba;}.cls-106{fill:#f3b5bf;}.cls-107{fill:#f3baaf;}.cls-108{fill:#f3bdb0;}.cls-109{fill:#f7d9d2;}.cls-110{fill:#f2b8ab;}.cls-111{fill:#f2b7c1;}.cls-112{fill:#f2beb0;}.cls-113{fill:#f7d6c1;}.cls-114{fill:#f7dbc6;}.cls-115{fill:#f8ddd6;}.cls-116{fill:#f2b5bf;}.cls-117{fill:#f4bfb9;}.cls-118{fill:#f4c3ba;}.cls-119{fill:#f7dbd3;}.cls-120{fill:#f3b6c2;}.cls-121{fill:#f2b7c3;}.cls-122{fill:#f3b6c0;}.cls-123{fill:#f2b4bf;}.cls-124{fill:#f3c2c8;}.cls-125{fill:#f3bcb0;}.cls-126{fill:#f7dad5;}.cls-127{fill:#efb8ab;}.cls-128{fill:#f0bcc3;}.cls-129{fill:#f2baac;}.cls-130{fill:#f6dad2;}.cls-131{fill:#f6ceb8;}.cls-132{fill:#f3b7c1;}.cls-133{fill:#f1b3be;}.cls-134{fill:#f4c0b2;}.cls-135{fill:#f1b0bb;}.cls-136{fill:#f1acb9;}.cls-137{fill:#f7e1d2;}.cls-138{fill:#ecb6bd;}.cls-139{fill:#f2bcbf;}.cls-140{fill:#f1abb8;}.cls-141{fill:#f3baac;}.cls-142{fill:#f3b7a9;}.cls-143{fill:#f7dbd2;}.cls-144{fill:#f2bcb3;}.cls-145{fill:#f2b0be;}.cls-146{fill:#f3baab;}.cls-147{fill:#f1adbb;}.cls-148{fill:#f8ddd4;}.cls-149{fill:#f3bab3;}.cls-150{fill:#f2c2b2;}.cls-151{fill:#f0aeba;}.cls-152{fill:#f1b3bd;}.cls-153{fill:#f0acb8;}.cls-154{fill:#f3c3b1;}.cls-155{fill:#f2b8a9;}.cls-156{fill:#f0bfc4;}.cls-157{fill:#f2beb3;}.cls-158{fill:#f1aeba;}.cls-159{fill:#f1b1bc;}.cls-160{fill:#f2b7a7;}.cls-161{fill:#f1adb9;}.cls-162{fill:#f1beae;}.cls-163{fill:#f2b9ab;}.cls-164{fill:#f1bfae;}.cls-165{fill:#f1b0bd;}.cls-166{fill:#f2b8aa;}.cls-167{fill:#f0aebb;}.cls-168{fill:#f0b7ae;}.cls-169{fill:#f2bcc3;}.cls-170{fill:#f2bbc2;}.cls-171{fill:#f1b7bf;}.cls-172{fill:#f0abba;}.cls-173{fill:#f1afba;}.cls-174{fill:#edb8c3;}.cls-175{fill:#f1afb9;}.cls-176{fill:#f2bab3;}.cls-177{fill:#f2b6b1;}.cls-178{fill:#f7d8c5;}.cls-179{fill:#f1b5c0;}.cls-180{fill:#f2bcb2;}.cls-181{fill:#f7d7bd;}.cls-182{fill:#f3bbb5;}.cls-183{fill:#f3bcac;}.cls-184{fill:#ecb1ba;}.cls-185{fill:#f2bbb0;}.cls-186{fill:#f6d6c8;}.cls-187{fill:#f6d8c8;}.cls-188{fill:#f6d4bf;}.cls-189{fill:#f4c6c3;}.cls-190{fill:#f2bdc5;}.cls-191{fill:#f2c0c7;}.cls-192{fill:#f2b8c2;}.cls-193{fill:#f7d2c2;}.cls-194{fill:#f2bcc4;}.cls-195{fill:#f3c1c8;}.cls-196{fill:#f5cfbc;}.cls-197{fill:#f9ebbe;}</style></defs><path class="cls-1" d="M1392.31,268.26V270c-1.92,7.95-.69,16-.78,24-.22,18.64-.08,37.28-.07,55.9.26,3-1.75,4.38-4.07,5.55-11,5.57-21.07,12.19-25.64,24.53a3.51,3.51,0,0,1-2.64,1.81c-12.31-2-18.52-9.79-21.48-21.47-1.39-5.48-2.38-12.84-11.4-11.26-4.53-.33-8.84-1.66-13.16-2.95-5.3-4.37-9.51-3.58-14.38,1.47-8.86,9.18-15.16,20.17-22.94,30.09-2.66,3.38.88,6.52-.54,9.64-7.9,7.23-16.06,13.86-27.83,12.45-3-1.5-6-3.06-9.51-2.58-12,1.64-20.12-4.82-27.47-12.89-3.75-4.13-7.23-8.59-9.32-13.78a19,19,0,0,0-9.44-10.09c-2.8-2.93-2.92-6.49-2.41-10.19,3-10.53,1.75-14-7-20.1-8-4-9.19-3.4-13.63,4.42-9.33,16.39-10.31,34.62-12.54,52.67-2.64,21.39-5.17,42.78-6.35,64.29-.89,16.23,1.48,32.38,2.08,48.58.19,5,1.21,10,.62,15.08-1,10.11-.47,20.23-.23,30.34.52,3.53.11,6.81-2.67,9.4-7.52-.72-8.41-2.41-7.08-13.65-3.24,26.87-12.77,38.36-31,37.53,7.93.87,14.52-2.21,20.92-6.6,2.61-1.79,6.83-6.19,8.39,1.42-7.18,16.24-18.22,21.36-37.73,17.93-26.94-16.16-32-42-30.64-70.33.59-12.54,3.58-24.83,5.27-37.27a11.1,11.1,0,0,1,3.79-7.26c3.43-1.2,5.34-3.73,6.32-7.15,3.75-13.12,9.11-25.73,12.38-39-3,12-7.39,23.5-11.4,35.14-.83,2.42-1.66,6.48-6.2,4.18-2.93-4.9-1.39-9.78.15-14.61,6.22-19.48,12.53-38.92,15.54-59.25,3.88-26.17,3.24-51.95-6.35-76.95-1.93-5.05-2.76-11-8.58-13.66-4.21-2.22-5.89-6.14-7.07-10.41.22-7.11-4.76-8.24-10.23-8.8a50.55,50.55,0,0,1-13.73-5.77c-3.36-2-5.27-5.44-8.2-7.86-13.73-1.14-26,13.29-29.79,24.1-2.19,6.32-3.46,12.91-5.25,19.34a61,61,0,0,1-8.31,17.2,178.46,178.46,0,0,1-22,13.83c-20.27-3.06-33.13-13.92-36.8-34.65-1.07-6.07-2.25-12.14-3.44-18.19-1.51-7.68-3.16-15.39-8-21.85-5.62-5.65-11.73-9.7-20.17-6.21a7.88,7.88,0,0,1-2.37.12c-3.78.16-5.41-5.84-7.81-4.63a31.52,31.52,0,0,0-11.15,10c-4.92,6.93-7.72,14.78-10.27,22.85-2.93,9.31-5.79,19.12-17.52,21.47.76,2.23,3.19,2.67,3.73,4.65-.12,3.27-2.47,4.11-5.09,4.66-14.95-1.69-26.8-8.57-35.68-20.78-4-5.42-8-10.75-11.36-16.55a28,28,0,0,0-14-12.54c-1.85-1.51-4-1.33-6.19-1.08-18-3.47-27.28,3.05-34,23.87-4.21,13.11-7.7,26-3.78,40.17,2.46,8.91-8.43,24.77-18.4,29.51C721.76,366,713.2,354.41,716,338.85a147.36,147.36,0,0,0,1.66-36c-.54-8.13-2.1-16.33-11.83-19.11a123,123,0,0,1-15.74-5.34c-8.21-5.16-13.34-2.78-14.74,6.84-1.44,9.85,2.4,18.75,5.38,27.68a39.31,39.31,0,0,1,2.38,13.89c-4.15,14.07-20.15,20.89-31.46,13.48a5.62,5.62,0,0,0-1.74-5.85c-6.34-6.47-6.76-14.27-4.62-22.65,2.56-10,5.22-20,5.24-30.48,0-5.31-1.6-9.36-7.5-10.35a45,45,0,0,1-7.49-1c-7.37-1.19-13.88,0-18.92,6.19a19.24,19.24,0,0,1-7.94,6.06,7.28,7.28,0,0,0-5.28,3.59c-8.29,13-13.39,26.18-7.93,42,4.67,13.49,6.28,27.84,9.43,41.77,2.28,10.1,3.19,20.85-6.76,28.5-2.9,2.23-1.12,5.15-1.23,7.81q-8.68,11.43-22.56,4.1a14.52,14.52,0,0,0-3-4.91c-15.72-15.52-19.56-34.15-13.6-54.93,4.89-17,9.56-33.94,8.64-52-.85-16.64-8.09-29.55-20.68-39.72-5.12-4.14-11.19-6.4-18-4-23.26-2.36-27.07-.06-36,21.78a17.19,17.19,0,0,0-3.06,12.49c1.89,15,3.37,30-7.77,42.63-1.06,1.21-.86,3.19-1.62,4.69-6.89,6.09-10,6.35-18.5,1.57-10.68-9.89-15.43-22-14.3-36.6a133.67,133.67,0,0,0-.15-21.64c-.32-3.65,0-8.17-5.7-8.44a4.75,4.75,0,0,1-2.73-1.83c-8.71-15-22.3-18.14-38.19-15.88a11.2,11.2,0,0,1-6.57-.54c-2.18-1.36-1.62-3.27-.91-5.11,1-2.62,3-4.61,4.52-6.91,1.76-2.66,7-5.79,2.87-8.52-3.14-2.09-5.24,3.46-7.52,6.09-3.94,4.54-2.5,9.85-2.69,15a8.33,8.33,0,0,1-2.52,3.34c-18.12,13.34-25.61,32.26-27.53,53.71-1.4,15.57-4.32,31.14-1.08,46.89,1.24,6.05,2.3,12.07,4.57,17.88a49.38,49.38,0,0,1,3.57,22.24,63.89,63.89,0,0,1-2.46,9.73c-3.2,11.12-11,17.05-22.49,18.48,1.27-.14-.42.3-.14.21,7.19-2.49,13.44-4.18,8.3,7.3-3.78,3.51-8,5.94-13.41,5.31a86,86,0,0,0-8.76-2.59c-19.31-3.9-31.65-18.53-32.6-38.22a98.42,98.42,0,0,1,1-18.38c1.58-11.35.09-22.25-5.45-32.48-1.65-3.05-3.38-5.79-6.93-6.8a8.69,8.69,0,0,1-2.85-1.69c-13.6-14.3-30-15.36-47.67-10-3.58-.09-7.38-.54-10.18,2.24a34.64,34.64,0,0,1-23.34,10.22c-6.73,5.61-8.26,11.31-5.15,18.65,1.1,2.61,3.17,1.38,4.92,1.51,6.49-.45,9.76,3.23,11.48,8.9,2.28,7.51,5.13,14.86,6.51,22.61,1.15,6.45,3.93,11.61,10.08,14.53,12.27,20,9.44,56.89-10,71.85-5.85,4.5-12.31,7.9-20.12,7.25a21.92,21.92,0,0,1-4.67-1.81c-23.31-9.66-29.81-30.41-16.15-52.14,4.78-7.61,9.3-15.3,11.1-24.22,1.24-6.15,1.55-12.22-4-16.82a20.78,20.78,0,0,1-4.1-2.77c-10.13-9.75-21-10.93-32.84-3.16-7.2-.4-12.05,3.29-15.76,9a67.93,67.93,0,0,1-16.86,18.27c-5.37,3.91-7.08,10.54-11.06,15.52-11.84,8-24.38,9.83-37.73,4.23-1.65-.69,2.14-2.49-1.16-3.56-28.53-9.22-40-32.4-46.35-58.89-1.46-6-2.52-9.88-9.3-9.67C1.45,356.46,0,350.51,0,343.68q.08-34,0-67.89c-.19-4.23,3.36-4.4,6-5.62,6.67-3,6.89-5.36,1-9.69-2.18-1.6-5.14-2.32-6-5.41-.47-30,0-60-.32-90-.07-5.56,2.8-8.59,6.38-12,5.14-4.8,4.78-6.31-1.93-8.43-3.4-1.07-4.36-3-4.32-6.16.09-6.16-.29-12.32.24-18.47,1.77-4.53,5.08-1.31,7.7-1.54,6.8-3.45,9.64-10.56,7-17.3-2.21-5.65-5.13-2.08-7.92-.71-2.57,1.2-5.31,3.25-6.8-1.27C.56,69.4,1,39.52.89,9.65c0-2.2-.23-4.51,1.41-6.38,3.13-1.82,6.59-1.12,9.91-1.12q684.75-.06,1369.51,0c3.57,0,7.36-.84,10.59,1.65V37.49c-2.44,2.89-6,2.48-9.23,3.29-6.35,1.62-12.15,4-14.57,10.86,3.62,4.09,6.18.39,9-1.21a25.85,25.85,0,0,1,9.27-3.49c2.23-.31,4.61-.52,4.66,2.87q0,47.82,0,95.61a5.64,5.64,0,0,1-.15,2.47c-3.24,6.25-3.38,12.44.15,18.64q0,43.64,0,87.22c.33,3.61-2.29,4.55-5,5.45-1.78.58-4.18.78-4.21,3.24,0,2.65,2.48,2.54,4.26,2.95C1388.71,265.88,1390.79,266.47,1392.31,268.26Z"/><path class="cls-2" d="M2.51,2.1a6.66,6.66,0,0,0,0-1.67H9.29c3.19,1.66,6.62.81,9.93.81q226.08.07,452.16.05,455.07,0,910.14,0c3.59,0,7.3-.87,10.79.78V3.8L2.57,3.78c-.5-.36-.67-.72-.52-1.1S2.35,2.1,2.51,2.1Z"/><path class="cls-3" d="M1392.31,2.11H471.42c-.54-.37-.71-.75-.53-1.12s.35-.55.53-.55q456.65,0,913.3.1C1387.19.53,1390.44-1.41,1392.31,2.11Z"/><path class="cls-4" d="M471.42.43V2.1Q245.19,2.1,19,2.08c-3.26,0-6.81,1-9.66-1.65Z"/><path class="cls-5" d="M1392.31,357.54c-6.16,3-11.62,6-15.74,12.5-7.71,12.11-17,14.89-28.22,11.19,3.35-2.9,6.76-2.1,10.18-.14,3.46-13,13.19-20.49,24-27,2.54-1.52,5.25-1.66,8-1.64.56-1.06,1.13-1.06,1.69,0Z"/><path class="cls-6" d="M1365.32,52.65c-.91-8.4,6.75-9.63,11.44-12.87,4.44-3.06,10.19-2.54,15.55-2.29V47.6c-.53,1-1.09,1.08-1.69.06l-13.46,5A10.73,10.73,0,0,1,1365.32,52.65Z"/><path class="cls-7" d="M1390.62,47.66l1.69-.06V148.66a1,1,0,0,1-1.7,0Q1390.61,98.16,1390.62,47.66Z"/><path class="cls-8" d="M1392.31,268.26c-2.53,0-5-.05-7.57,0-3.84.12-7-1-6.85-5.38.13-4,2-7,6.85-6.47a57.66,57.66,0,0,0,5.88,0c.58-1,1.15-1,1.69,0Z"/><path class="cls-7" d="M1392.31,256.47l-1.69,0V163.83a1,1,0,0,1,1.69,0Z"/><path class="cls-7" d="M1392.31,352.49h-1.69c0-24.3,0-48.61,0-72.92,0-3.25-1-6.78,1.65-9.61Z"/><path class="cls-9" d="M1392.31,163.83h-1.69c-9-3.09-9-6.57,0-15.18h1.7Z"/><path class="cls-10" d="M1103.86,590.05c-13.68,1.36-21.45-7.92-27.53-17.39-14.58-22.69-13.52-47.4-7.15-72.58,3.43-13.54,5.3-27.47,8.49-41.07,5.49-23.41,11.66-46.66,15.1-70.52,3.83-26.47,3.18-52.42-7.68-77.43-1-2.24-1.06-4.87-1.56-7.32,3.72-3,5.2.4,6.24,2.64a142.31,142.31,0,0,1,13.28,72.48c-2.11,28-9.77,54.41-18.66,80.7-1.12,3.32-.53,7.21-.73,10.84,2.11,2.25,2,4.45-.15,6.61-5.5,7.73-3.81,17.13-5.53,25.68-3.84,19.19-5.11,38.73,2.3,57.55,4.51,11.48,10.7,21.92,22.9,27.13A1.58,1.58,0,0,1,1103.86,590.05Z"/><path class="cls-11" d="M574.14,408.24c-21.74-3-34.92-26.86-28.46-46.67,6.77-20.75,14-41.45,11.77-63.74-2-20.1-11.35-35.81-30-45.08,7.69-3.92,16.24-1.1,23.74,6.08,23.89,22.88,20.28,50.11,13.41,78.14-3,12.32-8.65,24-5.83,37.61,2.54,12.32,7,22.84,16.89,30.73C580.49,409.19,575.19,407.55,574.14,408.24Z"/><path class="cls-5" d="M608.21,280.16c-2,6.65-3.6,13.49-6.21,19.9-3.76,9.23-3.7,18.38-1.31,27.76,4.48,17.57,6.84,35.5,9.1,53.46,1.42,11.28-3.68,18.63-13.39,23.48-4.68-2.28-9.59-4.26-1.09-8.52,11.4-5.71,8.49-16.54,7-25.32-2.9-16.74-7.5-33.2-11.71-49.7-2.64-10.3,4.61-34.21,12.83-40.11C604.6,280.24,606.58,280.45,608.21,280.16Z"/><path class="cls-12" d="M736.14,369.25c-20.3,5-31.13-8.45-27.92-28.21,1.7-10.45,3-21,4.19-31.5,1.16-10-.48-19.48-6.45-27.89,8.68-.26,11.78,6.39,13.3,12.66a92.34,92.34,0,0,1-.21,43.07c-3,12.66,4.07,26.77,17.06,28.63A2,2,0,0,1,736.14,369.25Z"/><path class="cls-13" d="M232.07,325.63c-16.35,13.15-17.67,30.15-12.82,48.92,2.84,11,6.34,21.9,6.07,33.47-6.28-1.18-9-5.27-10.32-11.29-1.9-8.63-4.81-17-6.81-25.63-1.29-5.55-4.09-8.6-9.92-8.52-2.43-.78-3.15-2.41-2.4-4.78,9.39-5.58,9.95-9.28,2.68-17.69-.16-.36-.31-.73-.45-1.09.36-1.35,1-3.32,2.39-2.83,8.37,3,13.21-1.72,18.41-7.16C222.2,325.57,227.22,325,232.07,325.63Z"/><path class="cls-14" d="M336.4,436.62c-23.13,5.59-41.87-8.72-45.3-33.22-1.32-9.4-.67-18.91.9-28.33,2.27-13.59-1.72-25.91-8-37.71,11.89,6.38,14.23,18.07,15.15,29.68.72,9.1-1.26,18.37-1.36,27.58-.19,19.91,10.39,33.35,29.53,38.19C330.54,433.63,334.05,433.73,336.4,436.62Z"/><path class="cls-15" d="M196.33,483.7c-15.63,2-25.6-5-31.42-19.27-4.48-11,2.26-20,4.92-29.59,1.6-5.76,5.1-11.1,8.4-16.37a45.09,45.09,0,0,0,6.48-30.61c8.36,8.86,8.93,19.86,1.37,33.14-2.75,4.84-5.46,9.69-8.69,14.32a29.94,29.94,0,0,0,14,45.44A33.28,33.28,0,0,1,196.33,483.7Z"/><path class="cls-16" d="M975.66,347.24c-21.93.12-38.82-12.81-41.26-32.49-1-8.21,1.1-16.56-.36-25-.95-5.54-1.77-11-4-16.13-.85-1.93-1.22-3.62,1.81-3.63,8,10.4,9.48,23,11.75,35.26.46,2.46,1.21,4.88,1.54,7.36,2.39,18.35,14.43,27.16,31,31.55a12.79,12.79,0,0,1,2.85,1.59C978.24,347,976.6,346.34,975.66,347.24Z"/><path class="cls-12" d="M461.16,335.86c-19.71-2.18-26.77-13.25-23.07-35.93a185.82,185.82,0,0,0,2.75-29.78c1.66-4.64,4.22-4.23,6.34-.66a18.38,18.38,0,0,1,2.32,9.69c-.09,4.75.39,9.55-.08,14.26C447.85,309.15,450.54,323.57,461.16,335.86Z"/><path class="cls-12" d="M651.74,339.15c-10.81-2.5-14.66-7.07-15.07-17.85a41.73,41.73,0,0,1,4.69-21c5.41-10.49,6.53-21,2-32,8.13.79,10.52,5.57,10.42,13.27a91.94,91.94,0,0,1-4.23,25.58c-6.3,20.53-.86,21,7.31,31.61Z"/><path class="cls-17" d="M908.22,264.81c-13.78-.43-15.92,11.36-20.09,20.12-3.54,7.41-4,16.18-8.62,23.32-3.69,5.66-8.15,10.39-14.93,12.3-4.26.3-6.67-3.63-10.59-4.25.42-.74.66-1.59,1-1.61,13.18-.8,18.77-9.65,21.11-20.91,3.13-15.09,11.54-26.56,22.87-36.29,2.52-2.16,6.14-4.05,5.56,1.77C904.1,263,906.78,263.14,908.22,264.81Z"/><path class="cls-18" d="M2.51,2.1l.06,1.68v97.76c3.86,5.58,3.84,11.16,0,16.74,0,6.44,0,12.88-.05,19.31,0,3.23.2,6,4.55,3.78,3-1.52,5.38-.74,7.41,1.74,2.56,3.12.64,5.8-.93,8.42-.71,1.18-1.61,2.64-2.76,3.09C.7,158.53,2.53,167.12,2.54,175q0,40.72,0,81.44c1.18,1.89,1.07,3.2-1.54,3.37Q.94,134.53.88,9.22C.88,6.75.38,4.11,2.51,2.1Z"/><path class="cls-19" d="M736.14,369.25l0-3.24c8.31-5.07,11.21-14.1,15.94-21.79a6.6,6.6,0,0,0,.28-6.42c-4.58-9.78-3.09-19.41.46-29.08,1.41-3.85,2.39-7.85,3.57-11.78a117.53,117.53,0,0,0,5.77,41.2c2.85,8.47-2,17.55-8.3,23.28C749.42,365.47,743.83,370.81,736.14,369.25Z"/><path class="cls-5" d="M1313.11,344.16C1299.69,352,1295,367,1285.42,378c-3.22,3.73-6.43,6.81-11.11,8.29-5.74-4.71-2.36-7.92,1-12.51,7.53-10.3,14.3-21.11,23.45-30.19C1304.88,337.5,1308.1,337.37,1313.11,344.16Z"/><path class="cls-20" d="M975.66,347.24l3.37-1.5c5.21-6.84,13-9.87,20.31-13.47,7.74-6.55,10.23-16.13,12.26-25.06,4.13-18.28,13.21-31,32-35.68a11.3,11.3,0,0,0,2.94-1.58c1.92,3.08,3.55,6.39,6.76,8.44-14.85-2.23-28.23,14.33-34.4,30.25-5.21,13.45-11.19,25.82-24.32,33.71A34.51,34.51,0,0,1,975.66,347.24Z"/><path class="cls-21" d="M859,323.57c-17.43,5-32.82-3.95-41.69-20.56-5.79-10.86-11.9-22-22.21-29.67a2.54,2.54,0,0,1,3.52-.09,26.39,26.39,0,0,1,15.92,12.18c8.15,13,15.67,27.19,31.31,33.37C850.21,320.52,854.65,322,859,323.57Z"/><path class="cls-22" d="M489.85,275c3.75,13.71,6.38,27.5,5.32,41.89-.82,11.21-5.65,17-17,18.66-1.39-2.61-2.4-5.37.29-7.65,12.2-10.35,8.41-24.13,7.27-36.85C485.12,284.7,485.18,279.57,489.85,275Z"/><path class="cls-23" d="M64.8,430.08c-20.18-4-33.36-16.25-41-34.92a98.88,98.88,0,0,1-5.41-19.22,36.06,36.06,0,0,0-7.47-16.62c5.09-3.91,7.77-.58,8.14,3.75,1.83,21.26,12.71,37.81,26.47,53.06,3.57,4,8.22,5.62,12.93,7.48,3.08,1.22,6.67,2.4,8.65,4.76S65.44,429.21,64.8,430.08Z"/><path class="cls-5" d="M1147.85,554.71c1.06,7.95-2.23,13.91-8.48,18.52-2.8-.51-2.66-.27-6,1.54-9.28,5.06-18.67,9.94-30.26,2.51,30.88.47,32.72-14.7,38.64-41.27,3.29,3,2.5,6.62,2.58,10S1144.1,552.83,1147.85,554.71Z"/><path class="cls-24" d="M1046.55,270c.44,4.26-2.54,4.84-5.71,5.59-12.95,3.06-20.11,12-24.2,24-2.68,7.9-5.77,15.65-8.35,23.58-1.52,4.66-4.71,7.31-8.95,9.11,6.3-11.26,8.54-23.83,12.18-36,4-13.3,13.45-22.42,27.06-26.81C1041.46,268.52,1044,268.41,1046.55,270Z"/><path class="cls-25" d="M1247.18,397.86c-27.19,5-42.52-4.27-51.07-30.73-.86-2.66-1.83-5.28-2.75-7.91,5.34,1.4,7.79,5.46,10.38,10,8,14,16.88,27.36,36.3,25.43C1242.93,394.36,1245.67,394.85,1247.18,397.86Z"/><path class="cls-26" d="M801.78,170.59c4.09,0,6.77,0,8,2.83,1,2.42,1.37,5.39-.61,7.14-5.19,4.6-9.55,10.33-16.3,12.9-2.67,1-5.63,1.38-7.88-.93s-1.79-5.45-.07-7.75C789.68,178.39,793.77,170.91,801.78,170.59Z"/><path class="cls-19" d="M690.62,276.48c-8.94.51-9.84,7.46-9.84,13.75A155.73,155.73,0,0,0,683.11,315c.67,4.19.49,7.63-2.46,10.74.7-8.21-3.89-15-6.27-22.34-2-6.29-2.37-12.53-2.23-19,.15-6.82,4.82-10.71,9.87-13.58C687.4,267.76,687.26,275.22,690.62,276.48Z"/><path class="cls-27" d="M145.9,382.81c-10.53,8.74-16.68,21.16-26,31-5.23,5.51-10.52,9.54-17.82,11.07,3.15-7.62,7.43-14.25,14.67-18.8,5.34-3.35,8.53-8.84,11.74-14C132.56,385.41,138,382,145.9,382.81Z"/><path class="cls-28" d="M1287.55,167.29c-4.33-.33-8.69.8-9.64-4.26-.89-4.78,3.25-5.89,6.4-7.59,4.16-2.25,9-2.76,13-5.75,2.73-2.06,5.68-1.23,8,1.76s3.32,5.65.47,8.9C1300.64,166.2,1293.68,166.62,1287.55,167.29Z"/><path class="cls-29" d="M59.9,248c4.14,5.32,2.25,10.6-4.15,11.77-8.48,1.55-15.1-3.39-21.73-7-4.32-2.34-2.56-6.61,1.92-7.86,6.16-1.72,12.55-3.05,18.88-.26C56.12,246.41,58.6,246.33,59.9,248Z"/><path class="cls-30" d="M224.19,135.18A61.45,61.45,0,0,1,204,128.09c-4.89-2.69-1.92-6.19,1-8.59,3.47-2.89,7.28-3.37,11.65-1.3,6,2.83,13.23,4,14.88,11.89C232.62,135.29,228.75,135.18,224.19,135.18Z"/><path class="cls-31" d="M1262.14,139.23c-.1,5-14.84,18.1-19.71,17.11-4-.8-5.87-4.45-4.16-7.54,3.45-6.22,7.18-12.69,14-16A6.77,6.77,0,0,1,1262.14,139.23Z"/><path class="cls-32" d="M757.79,219a11.93,11.93,0,0,1-4.86,7.3c-4,3-9.07,4.44-12.37,8.59-1.52,1.93-4.23,1.82-6.21.59-2.59-1.62-3.48-4.35-2.88-7.36,1.5-7.52,15.64-15.81,22.89-13.51C756.45,215.31,757.74,216.54,757.79,219Z"/><path class="cls-33" d="M571,209.33c3.54-.55,7.07-1.2,10.63-1.65,4.49-.56,7.57,1,8.33,5.86s-2.46,7.24-6.1,7.11c-5.57-.2-9.44,4.68-15,3.89-2.81-.39-5.6-.2-7-3.34-1.53-3.49-1.3-6.48,2.36-8.53C565.85,210.37,569.26,211.61,571,209.33Z"/><path class="cls-34" d="M905.65,32.61c-3.18,0-5.53-.83-6.76-4s1.29-4.28,3-6.07c4.75-5.12,9.25-10.41,17.16-10.41,3.38,0,6.09.64,7.17,4.24a5.33,5.33,0,0,1-3.39,6.8C916.67,25.65,912.68,32,905.65,32.61Z"/><path class="cls-35" d="M1372.07,328c0,2.8.14,5.83-3.11,7.08-3.44,1.32-6-.39-7.8-3.18a89.1,89.1,0,0,1-6.93-12.33c-1.43-3.42-1.58-7.36,3.08-9,4.23-1.46,8.75-1.59,10.86,3C1370.21,318.09,1372.19,322.83,1372.07,328Z"/><path class="cls-36" d="M1359.49,232.61a6.8,6.8,0,0,1-5.39-3.53c-2.64-4.22-5-8.63-7.26-13.06-1.43-2.77-1-5.83,1.45-7.48a6.82,6.82,0,0,1,8.55.53,61.39,61.39,0,0,1,9.11,10.74C1369,224.47,1364.6,232.54,1359.49,232.61Z"/><path class="cls-36" d="M161.09,288c.68-3.68-3.31-9.89,3.74-10.65,6.13-.67,9.17,4.14,10.69,9.77,3.06,11.32.16,16.4-8.67,14.82C162,301,161.38,299.51,161.09,288Z"/><path class="cls-30" d="M1228.65,283c-.57,5.47-9,16-13.58,16.9-2.77.52-5.73.79-7.44-2.17a5.06,5.06,0,0,1,1.13-6.82c4-3.05,4.55-8.2,7.94-11.56a9.17,9.17,0,0,1,9.22-2.39C1229.27,277.81,1228.52,280.77,1228.65,283Z"/><path class="cls-28" d="M689.52,25.2c-1.2-.37-6.4,2.71-7.12-3.58-.63-5.44,4-5.8,7.53-7.24,5-2.06,10.23-2.38,15.56-2.19,3.24.12,5.38,1.06,5.39,4.75,0,3.31-.49,6.36-4.43,6.85C701.5,24.39,696.75,26.51,689.52,25.2Z"/><path class="cls-37" d="M691.85,194.65c-3.37.31-6-.34-6.94-3-1.11-3.23,1.13-5.53,3.89-6.49,6.34-2.21,12.79-4.14,19.29-5.88,2.75-.73,6-.66,7.18,2.62s-.88,5.86-3.74,7.61C709,191.07,695.05,194.61,691.85,194.65Z"/><path class="cls-38" d="M1316.38,313.71c10.68-3.49,26.09,7.51,24.93,18-.4,3.66-3.48,5.53-6.4,7.28-5.6-2.64-9.09-7.68-13.43-11.76,0-.52,0-1,0-1.56A20.46,20.46,0,0,1,1316.38,313.71Z"/><path class="cls-39" d="M1170.2,143.59c-3.62,0-6.93-.45-7.08-5.1s12-14.77,17.69-14.92c3.89-.11,5.59,1.94,5.67,5.64C1186.61,135.57,1177.73,143.42,1170.2,143.59Z"/><path class="cls-36" d="M1022.79,41c-.13,3.41-2.21,6.07-6.48,6.41-5.62.44-9.91-7.16-10.21-17.66-.11-4.1.85-7.24,5.78-7.32S1022.47,31.68,1022.79,41Z"/><path class="cls-40" d="M1321.48,236.25c3.9,4.95,2.11,9.85-4.58,11.48a78.79,78.79,0,0,1-13.09,1.87c-3.13.22-7.06,1.12-7.57-4-.41-4.1.8-7.1,5.27-8,2.16-.43,4.3-.92,6.45-1.38A13.31,13.31,0,0,1,1321.48,236.25Z"/><path class="cls-30" d="M435.24,71.18c6.05,1.41,13.12,1.91,18.32,7.45,1.84,2,3.31,3.92,2,6.63s-3.9,3.09-6.46,2.27c-5.84-1.86-11.65-3.84-17.39-6-2.91-1.09-4.51-3.31-3.73-6.58C428.77,71.47,431.61,71.23,435.24,71.18Z"/><path class="cls-36" d="M327.46,243c-4.42-.1-15.61-11-15.85-15.34-.2-3.5,3.34-3.32,5-5a3.81,3.81,0,0,1,5.95,0,142.94,142.94,0,0,1,10.06,11.28c1.37,1.79,3.86,3.73,2.35,6.68C333.28,243.79,330.15,242.78,327.46,243Z"/><path class="cls-36" d="M906.55,112.43c-6-2.22-12.49-1.56-17.88-4.9-2.42-1.49-4.72-3.53-3.28-6.85,1.2-2.78,3.59-4.61,6.7-4a158.6,158.6,0,0,1,16.21,4.18,6.22,6.22,0,0,1,4.52,7.2C912.25,111.42,909.27,112,906.55,112.43Z"/><path class="cls-41" d="M857.79,259c1-4.21,1.86-9.21,3.49-13.93,1.58-4.55,5-7.07,9.82-4.22,4,2.38,6,5.21,1.88,10-2.58,3-3.23,7.62-4.86,11.46-1.21,2.86-3.27,4.62-6.58,3.89C858,265.47,857.64,262.71,857.79,259Z"/><path class="cls-42" d="M109.88,165.22c-4.27-.64-4.71-3.68-4.3-6.88.91-7.09,10-16.15,17.24-17.44,3.17-.56,6.5-.23,5.15,3.79-2.81,8.37-9.29,14.22-15.82,19.83C111.58,165,110.59,165,109.88,165.22Z"/><path class="cls-43" d="M147.61,63c.17-10.52,6.84-16.9,15.19-15.34,2,.39,3.87,1,4.53,3.14a7.93,7.93,0,0,1-2.92,9c-4.52,3-6.76,9.63-13.29,9.09C147.48,68.61,147.75,65.06,147.61,63Z"/><path class="cls-44" d="M706.57,148.91c-.14,5-12.51,18-17.62,18.17-3.74.14-6.9-.67-6.15-5.53.83-5.43,14.11-16.43,19.52-16.22C704.51,145.41,707.11,145.11,706.57,148.91Z"/><path class="cls-45" d="M298.69,180.48c-.46,4.86-17.76,17.41-22.14,16.26-3.13-.83-5-2.63-2.91-6.14,4.1-7,9.37-12.41,17.66-14.29C295.46,175.37,297.58,177.15,298.69,180.48Z"/><path class="cls-46" d="M279.13,236.27c0-2.93.39-5.71,3.91-6.48,3.25-.71,6.2,0,8.21,2.77A94.16,94.16,0,0,1,298.16,243c3.31,6.3.61,10-7.06,10.1A21.87,21.87,0,0,1,279.13,236.27Z"/><path class="cls-47" d="M329.75,23.25c.21-2.64-.71-5.88,1-8.66s4.81-2.45,7.6-2.24a4.75,4.75,0,0,1,4.77,4.89c.18,3.35.13,6.72.12,10.08,0,4.89-2.08,8.18-7.31,8.38-6.29.24-6.18-4.31-6.16-8.68C329.76,25.9,329.75,24.78,329.75,23.25Z"/><path class="cls-13" d="M363.5,397.94c5.56,15.81-1.11,31.15-15.19,33.56.73-1.74,2.32-3.57.68-5.37-1.44-1.59-2.91-.28-4.37.62-4.36,2.68-8.9,1.63-14.23-.31C348.08,424.14,361.36,417.18,363.5,397.94Z"/><path class="cls-48" d="M920.34,186.72c2.4,2.16,5.19,4.16,4.14,8.15s-16.73,14.74-20.83,14c-3.34-.6-7.39-2.05-3.9-6.54,5-6.45,13-9.43,18.87-15A5.6,5.6,0,0,1,920.34,186.72Z"/><path class="cls-49" d="M851.65,93.31c5.08-.26,7.14,3.26,5,8.45-1.57,3.74-14.84,11.6-18.87,10.77-4.88-1-3.92-4.56-2.66-7.82C836.81,100.24,846.67,93.56,851.65,93.31Z"/><path class="cls-50" d="M635.84,156.68c-.57-3.2,1.49-5.48,3.65-7,3.21-2.21,4,1.64,5.71,3.14,3.81,3.4,7,7.2,8,12.44.85,4.22-1.3,7.46-4.28,9.34-3.5,2.2-4.26-2.41-6.23-4C638.24,167.14,636.65,162.1,635.84,156.68Z"/><path class="cls-51" d="M115.53,74.55c4.47-1.76,8.93-3.78,11.8,2.46,3.93,8.53,1.92,17.13-5.07,21.15-5.68.16-7.72-3.32-8.37-8.26C113.2,84.64,112.8,79.43,115.53,74.55Z"/><path class="cls-52" d="M1139.31,340.63c0,4.07-12.61,17.24-16.17,16.37s-4.55-4.36-3.66-7.45c1.92-6.69,6.12-12.08,12.52-14.83C1137,332.57,1139.23,335.74,1139.31,340.63Z"/><path class="cls-53" d="M36.29,39.81a22.78,22.78,0,0,1-.35,5.52c-1,4.13-4,5.88-8.2,5.51-4-.36-4.93-3.14-4.9-6.53,0-3.63-.08-7.2.94-10.82,1.29-4.55,3.77-6.65,8.5-6,5.14.68,3.68,4.7,4,7.81C36.36,36.11,36.29,37,36.29,39.81Z"/><path class="cls-51" d="M374.56,59.36c-2.73-.42-6.5,1.26-7.47-3.17-.88-4,1.38-6.24,4.76-7.71,4.57-2,9.18-3.86,13.66-6,2.14-1,3.14-.08,3.89,1.53,1.09,2.38,3.79,4.91.9,7.47C385.81,55.41,381.82,60.67,374.56,59.36Z"/><path class="cls-54" d="M1162.35,96.17a6.28,6.28,0,0,1-5.63-4.49A3.63,3.63,0,0,1,1159,86.9c5.3-2.14,9.28-5.92,13.35-9.76,2.75-2.6,6.87-4.35,9.71-1.11s-.45,6.25-3,8.35c-3,2.46-6.16,4.65-8.7,7.74C1168.44,94.46,1165.31,95.52,1162.35,96.17Z"/><path class="cls-55" d="M972.28,34.17c2.08-7.86,4.63-8.77,10.26-3.46,2.82,2.66,6.18,4.73,8.24,8.23,4,6.8,3.27,8.49-5,10.37C976.7,48.39,971.83,42.93,972.28,34.17Z"/><path class="cls-56" d="M933.55,227.84c1.06-8,4.64-10.15,10.7-5.77a63.36,63.36,0,0,1,12.08,11.45c3.95,4.93,2.78,8.28-4.28,7.77C943.62,239.91,938.2,234.41,933.55,227.84Z"/><path class="cls-57" d="M1358.53,381.09l-10.18.14c-6.65-3.15-10.64-8.25-12.82-15.36-2-6.53-3.31-13.61-9-18.42,7.66-4.41,9.86,2.1,12.37,6.67,1.83,3.33,2.41,7.38,3.38,11.15,1.68,6.53,5.58,10.85,12.23,12.35C1356.59,378.1,1358.24,378.69,1358.53,381.09Z"/><path class="cls-51" d="M1054.51,145.28c-4.72.32-5.89-2-4.4-6.68,2.17-6.87,8.41-10.07,13.15-14.44,2.35-2.17,6-.31,6.68,3.6C1071,133.45,1060.76,145.32,1054.51,145.28Z"/><path class="cls-58" d="M326.29,384.51c.17-.52.18-1.35.53-1.53,7.24-3.75,9.47,3.46,11.5,6.84,2.36,3.92,8.57,8.71,2.74,14.44-1.4,1.38-4.1,1.44-6.2,2.1C325.7,403.17,321.8,393.21,326.29,384.51Z"/><path class="cls-59" d="M7.58,98.19c1.68-2.86,4.19-5,7.47-4.19,3.13.8,3.14,4.43,3.79,7,2.58,10.26-1,17.76-9.54,20.67C2.45,114.31,4.25,106.3,7.58,98.19Z"/><path class="cls-50" d="M65,333.5c-.27,5.3,1.61,13.21-6.34,12.75-6.15-.35-5-8-5.43-13a15.44,15.44,0,0,1,0-3.33c.54-4.21,1.13-9,6.55-9.07,6.38,0,4.89,5.4,5.17,9.34C65,331.27,65,332.39,65,333.5Z"/><path class="cls-60" d="M857.44,282.81c0,6.57-16.19,18.84-21.31,17-4.68-1.65-5.27-5.84-1.8-8.32,5.12-3.66,10.4-7.19,15.69-10.64C852.78,279.08,856.51,279.21,857.44,282.81Z"/><path class="cls-61" d="M1112.28,127.31c.14-4.29-.26-8.44,5-8.69,4.7-.22,5,3.39,5.33,6.89.29,3.17,2.4,5.55,3.86,8.24,2.14,3.94.64,7.22-3.11,9-4.09,2-7.35,0-8.67-3.9S1111.88,131,1112.28,127.31Z"/><path class="cls-62" d="M301.16,121.2c1.74-6,2.83-12.58,9.84-15.31,4-1.57,7.17-.41,6.34,4.22-.91,5.09-1.63,10.45-5,14.82-1.86,2.43-3.65,5.62-7.21,4.14C302.11,127.81,301.47,124.46,301.16,121.2Z"/><path class="cls-63" d="M1092.12,165.39c3.16.3,5.87-.43,6.93,2.1.92,2.2-1.51,3.32-2.59,4.82-5.15,7.2-13.75,10.7-19.83,8.61-3.63-1.24-4.45-2.65-2.1-5.91C1079.14,168.62,1085.82,166.51,1092.12,165.39Z"/><path class="cls-51" d="M224.74,33.81c-2.54-.14-4.71-.94-5.71-3.11s-1.26-4.88.92-6.1c5.07-2.82,9.28-7.17,15.11-8.61,3.06-.75,5.44.15,7,3.08s-.27,5-2.36,6.28C234.76,28.37,230.65,32.87,224.74,33.81Z"/><path class="cls-27" d="M1083.51,477l.15-6.61c8.34-15.47,11.46-32.82,17.43-50.48,4.14,6,1.31,10.75.13,14.94-3.65,13.1-8.08,26-12.3,38.92C1088.12,476.23,1087.76,480,1083.51,477Z"/><path class="cls-44" d="M392.14,251.29l-3.15.35c-4.51-2.87-5-7-1.95-10.72,4.1-5,4.76-14,14.38-13.06,5.14.5,3.91,3.54,2.82,6.59C401.83,241.22,395.08,244.89,392.14,251.29Z"/><path class="cls-56" d="M933.56,93.06c5,1,9.3,3.61,13.49,6.27,3.51,2.22,4.34,5.92,2.65,9.51-1.42,3-3.63,6-7.71,2.84-5.78-3-10.46-7.44-15.17-11.83V93.09A4.85,4.85,0,0,1,933.56,93.06Z"/><path class="cls-64" d="M572.62,113.29C570,104.72,576.7,94,585,93.87c4.07-.08,6.31,2.11,5.06,6.42-1.7,5.82-4.68,10.7-10.72,13A4.87,4.87,0,0,1,572.62,113.29Z"/><path class="cls-65" d="M955.47,305.34c7.92-4.07,21.88.7,24.83,8.76,1.41,3.83,0,6.52-4.63,6.42-9.07.9-14.35-5.5-20.19-10.64A3.28,3.28,0,0,1,955.47,305.34Z"/><path class="cls-51" d="M23.66,310.71c2.85.34,5.51,1.39,5.79,5.32.37,5-8.71,12-16,12.18-3.11.08-5.63-1-5.59-4.66C7.9,319.5,18.32,310.93,23.66,310.71Z"/><path class="cls-45" d="M674.73,104.81c2,.3,4.09-.41,4.76,1.67.63,1.93-1,3.19-2.33,4-6,3.48-12,6.84-18.12,10.13-3.45,1.86-5.79.44-7.41-2.85-2-4.13.55-5.22,3.76-6.49C661.85,108.68,668.23,105.92,674.73,104.81Z"/><path class="cls-66" d="M726.06,94.74c2.35-5.39,5.43-6.45,10-2,3.36,3.28,6.89,6.63,8.21,11.06,1.15,3.87,1.45,8.55-4.6,9.51C728.86,108.52,725.56,104,726.06,94.74Z"/><path class="cls-67" d="M504.52,61.66c.28-1.69.8-4,3.19-4.84s3.8,1,4.8,2.5a108.65,108.65,0,0,1,8,13.56,5.93,5.93,0,0,1-2.38,7.36c-2.84,1.85-5.7.36-7.33-1.94C507.47,73.51,504.85,68.27,504.52,61.66Z"/><path class="cls-64" d="M486.58,116.67c6.28-7.59,14.43-4.61,21.46-2.59,4.7,1.34,5.2,6.58,2.14,11-7.28,2.66-14.22.64-21-1.79C486.2,122.27,484.76,119.93,486.58,116.67Z"/><path class="cls-66" d="M1299.56,17.26c6.1-5.85,9.79-2.64,12.57,3.43,5.37,11.71,3,17.54-7.53,18.45-3.29-4.7-4.6-10-5-15.63C1299.53,21.43,1299.55,19.34,1299.56,17.26Z"/><path class="cls-68" d="M56.47,217.73c5.24-4.18,19.9-4.59,24.79-.78a5.48,5.48,0,0,1,2,5.9c-1.08,4.87-5.19,2.78-8.16,3.3-4.1-.18-8.21.29-12.31-.6C58.45,224.61,55.82,222.58,56.47,217.73Z"/><path class="cls-39" d="M587.61,142c-3.53-.15-7.2.31-7.73-3.81-.46-3.64,2.51-5.12,5.48-6.37,4.52-1.91,9.25-1.76,14-1.61,2.35.08,5.92-.94,6.33,2.28a7,7,0,0,1-5.42,7.43C596,141,591.51,141.35,587.61,142Z"/><path class="cls-69" d="M982.45,242.9c2.35-4.14,6.09-6.52,10.39-4.33,5.94,3,7.94,9,8.16,15.38.11,3.53.79,7.7-4.92,7.59A35.61,35.61,0,0,1,982.45,242.9Z"/><path class="cls-70" d="M86.52,115.79c-.23,3-12.82,17.14-15.28,17.4-4.14.44-6.64-.84-5.08-5.66,2.15-6.67,7.26-11.08,12.55-14.89C81.93,110.33,85.72,111.21,86.52,115.79Z"/><path class="cls-71" d="M1213.51,106.59c1.79-2.46,1.87-7.39,6.71-5.69,4,1.42,5.07,5.33,4.09,9-1.54,5.84,1.34,14.61-9.09,15.22-5.49-.1-5.81-3.81-5.41-7.88C1210.19,113.44,1212.26,110.15,1213.51,106.59Z"/><path class="cls-72" d="M255.47,227.32c-.73,3.85.55,10.65-6.61,11.41-5.47.59-6.78-5.13-6.36-9,.56-5.06-.28-12.63,7.35-13C255.12,216.39,255.64,221.72,255.47,227.32Z"/><path class="cls-70" d="M989.11,83.05c3.07.53,6.58,1.46,3.14,6.18-4.28,5.88-10.72,9-17.25,11.3-3.18,1.12-6.12-1.49-4.83-5.41C971.86,90,983.17,82.84,989.11,83.05Z"/><path class="cls-39" d="M91.89,275c.71-2.37,1.34-4.77,2.15-7.11s2-4.78,5.16-4.48a6.44,6.44,0,0,1,5.87,5.11c1.49,5.55-5.51,17.66-11.42,19.92C87.64,284.7,88.44,280,91.89,275Z"/><path class="cls-73" d="M350,113.2c-1.16-1.68-4.17-2.71-2.52-5.41a5.52,5.52,0,0,1,5.79-2.5c6.35,1.08,12.87,2.76,17.55,7,5.87,5.28,1,7.76-4,9.41C360.82,119.59,354.08,119,350,113.2Z"/><path class="cls-74" d="M511.9,25.28c-.1,8.63-3.95,14.14-9.29,13.82-4.63-.27-4.21-3.6-4.17-6.65.1-7.59,4.79-15.29,9.22-15C513.58,17.75,511.31,22.47,511.9,25.28Z"/><path class="cls-75" d="M1110.81,206.15a18.56,18.56,0,0,1,.74,4.11c.09,3.35-2.13,5-5.12,5.49-3.29.49-5.5-1.15-5.69-4.5-.26-4.7-.19-9.42-.15-14.13,0-2.55.23-5.49,3.57-5.53a5.81,5.81,0,0,1,6.12,4.67C1110.8,199,1110.61,201.77,1110.81,206.15Z"/><path class="cls-76" d="M1110.12,300.23c-1.69,0-3.55.07-4.57-1.47-1.33-2-.12-4,1.25-5.22,4.6-4,9.36-7.78,14.31-11.3a4,4,0,0,1,5.39.72c1.3,1.69,2.58,3.79,1.58,6.13C1126.85,292,1113.43,300.2,1110.12,300.23Z"/><path class="cls-76" d="M777.44,120.55c-3.23-1.06-4.32-3.37-3.41-6.94,1.44-5.59,5.33-9.62,8.89-13.79a5,5,0,0,1,6.85-.61c2.59,1.82,1.84,4.24.74,6.69C787.7,112.19,780.54,120.53,777.44,120.55Z"/><path class="cls-77" d="M940.21,64.66C944.5,65,955.51,78,955.14,82c-.29,3.14-1.94,4.28-5.19,3.23C943,83,939.12,77.44,936,71.64,934.26,68.36,936.54,65.29,940.21,64.66Z"/><path class="cls-76" d="M346.59,185.76c-5.88-2.67-11.43-5.78-14.91-11.51-1.57-2.58-2.47-5.56,1.53-6.6,4.93-1.27,9.27,1.69,11.6,5,2.72,3.92,10.62,5.66,6.87,13A3.69,3.69,0,0,1,346.59,185.76Z"/><path class="cls-51" d="M774.93,131.92c8.07-3,17.63,2.65,18.47,10.73.44,4.24-2.54,6.72-5.32,7.61-5.07,1.62-4.81-4.93-8-6.66C776.33,140.6,773.28,137.3,774.93,131.92Z"/><path class="cls-78" d="M850.91,192.43c1.12-3.5,1.09-8.24,6.73-7.42,5,.72,7.46,4.41,6.55,8.88-1,4.67,7,12.83-4.77,13.72C852,205.11,851,199,850.91,192.43Z"/><path class="cls-70" d="M1213.52,171.9c0,1.4,0,2.79,0,4.19.08,4.29-.61,8.29-6.15,7.76-5.32-.51-5.74-4.21-4.72-8.63.55-2.42.5-5,.82-7.46.49-3.77,1.31-7.51,6.3-7.13,4.65.37,3.49,4.21,3.73,7.08C1213.62,169.1,1213.52,170.5,1213.52,171.9Z"/><path class="cls-79" d="M296,59.27c5.27-5.82,10.28-4.17,13.17,1.81,2.77,5.71,9.76,12.22.34,18.49C301,75.45,295.63,69.28,296,59.27Z"/><path class="cls-60" d="M619.81,78.47c.11-3.55-.48-7.18,2.08-10.33,1.82-2.25,3.59-5,6.68-2.88,2.4,1.61,4.93,4,3.77,7.57-1.28,4-2.78,7.83-4.32,11.69-.95,2.36-2.3,4.9-5.31,4.26s-2.77-3.69-2.88-6.15C619.77,81.25,619.82,79.86,619.81,78.47Z"/><path class="cls-69" d="M1331.57,268.31c6.73,4.32,5,10.06,2.85,16-2.26,6.25-6.73,8.31-13,7.47C1317.79,283.35,1322.67,272,1331.57,268.31Z"/><path class="cls-77" d="M303.15,287.08c6,.35,14.78,15.45,12.55,20.27-1.29,2.78-3.89,4-6,1.68-4.54-4.86-8.75-10.13-9.87-17C299.31,288.86,301.09,287.45,303.15,287.08Z"/><path class="cls-77" d="M125.62,244.74c-1.7-1.08-4-2.94-2.22-4.49,5.16-4.45,8.41-11.21,15.69-13.2,2.37-.65,4.44-.93,5.91,1.36a4.59,4.59,0,0,1-1.1,6.09c-4.19,3.63-8.75,6.82-13.16,10.19A3.75,3.75,0,0,1,125.62,244.74Z"/><path class="cls-80" d="M1221.67,35.1c-.31,5-10.05,14-15.16,14.11-4.65.06-5.32-2.19-3.47-5.89,2.69-5.39,8-8.53,11.55-13.21,1.07-1.41,3.14-1.21,4.61-.11A6.33,6.33,0,0,1,1221.67,35.1Z"/><path class="cls-81" d="M93.55,313.75c1.11-5.23,4.21-5.9,8.63-3.86a57.72,57.72,0,0,0,6.1,2.35c8.1,2.66,9,5.52,3.87,13.32-5.64.84-10.24-2.38-15.09-4.23A5.78,5.78,0,0,1,93.55,313.75Z"/><path class="cls-82" d="M1093.64,77.36c-.28,4.39-2.54,5.75-6.2,5.34-7-.77-11.21-5.47-15.29-10.46-1.71-2.09-.28-3.55.85-5.12,1-1.38,2.66-3.37,3.89-2,4.21,4.79,10.38,6.26,15.26,9.82C1092.94,75.56,1093.28,76.76,1093.64,77.36Z"/><path class="cls-69" d="M474.83,71.19c8.75-4.21,11.44-2.88,13.52,6.69.12.53,0,1.24.27,1.61,4.85,6.22,2.24,10.35-3.74,13.57C477.93,87.42,473.55,80.6,474.83,71.19Z"/><path class="cls-83" d="M1222,224.39c0-3.3.61-6.8,4.33-7.1,4-.32,5.5,3.1,6.39,6.59,1.67,6.52,2.35,12.77-4,17.44C1221.89,239.05,1220.33,235.13,1222,224.39Z"/><path class="cls-84" d="M587.78,275.27c-.13,2.15.2,5-3.15,5.67s-13.12-11.36-13.32-16.16c-.12-3.13,1.42-4.7,4.57-4.54C580.91,260.49,587.71,268.92,587.78,275.27Z"/><path class="cls-85" d="M1270.73,313.12c-2.33-.63-4.46-1.84-3.58-5.12,2.11-7.81,9.71-10.53,15.1-15.05,2.29-1.93,4.39,2.59,4.78,5.26C1287.48,301.31,1274.38,313.25,1270.73,313.12Z"/><path class="cls-84" d="M1179.12,228.13c-.74,2.83-3.24,3.59-5.75,2.75-6.55-2.18-12-5.86-14.42-12.8-.94-2.64-.25-4.4,2.5-5.05C1165.86,212,1179.41,223.34,1179.12,228.13Z"/><path class="cls-49" d="M562.48,20.65c.42-3.26,2-5.22,5.55-4.59,9,1.62,13.89,15.68,8,23.13C567.06,36.26,565.16,28.17,562.48,20.65Z"/><path class="cls-70" d="M595.45,190.05a3.16,3.16,0,0,1-3.47-1.71,5.13,5.13,0,0,1,.64-6.2c4.25-4.46,10-6.79,15.31-9.53,2.88-1.49,6.18.3,5.47,4.67C613,179.59,598,190,595.45,190.05Z"/><path class="cls-86" d="M408.41,171.2c-2.42,7-6.48,12.7-11,18.07a2.47,2.47,0,0,1-3.75,0c-1.71-1.59-3.32-3.86-2.43-5.92,2.56-5.93,6.19-11.39,11.5-15.16C405.5,166.26,408.08,167.59,408.41,171.2Z"/><path class="cls-87" d="M157.69,343.17c.61-2.69,1.24-6.24,2.23-9.7.71-2.48,2.06-4.75,5.24-4.27A4.53,4.53,0,0,1,169,334a76.88,76.88,0,0,1-2.25,14.64,4.51,4.51,0,0,1-5.95,3.23C157.05,350.53,157.88,347,157.69,343.17Z"/><path class="cls-88" d="M120.54,189.15c.4-2.23,1.76-3.68,4-3.3,9,1.54,7.14,10.81,11,16.1,2.76,3.83-2.9,4-4.85,5.71C122.33,205.55,118.17,197.93,120.54,189.15Z"/><path class="cls-89" d="M1277.73,198.34c-.88,3.75,1.92,10-4.11,10.27-6.53.29-6.23-5.9-6.06-10.67.16-4.49-1.4-11.46,4.79-11.5C1279.5,186.38,1276.9,193.79,1277.73,198.34Z"/><path class="cls-85" d="M1098.85,20.62c2.9,2.91,1,5.14-1.26,6.94-3.47,2.74-7.19,5.16-10.77,7.76-2.42,1.76-5,3.22-7.19,0-1.81-2.63-.79-5.2,1.13-7.61,3.37-4.21,8.56-5,13-7.16A3.71,3.71,0,0,1,1098.85,20.62Z"/><path class="cls-90" d="M216.1,84.76c9-2.63,13-9.15,19.61-12.12,2.37-1.07,4.88-2.22,6.73.39s-.17,4.8-1.64,6.72C236.33,85.58,225.6,88.32,216.1,84.76Z"/><path class="cls-85" d="M25.49,207c.34,4.38-10,18-13.43,18.29-4.87.41-5.18-3.71-4.15-6.23,2.58-6.27,7.55-10.82,13.59-13.91C23.79,204,25,205.82,25.49,207Z"/><path class="cls-70" d="M1264.68,49.29c2,.27,5.08-.34,4.91,3.56-.15,3.55-11.32,9.58-17.48,9.53-3.06,0-4.71-1.46-4.46-4.61C1248,53.78,1257.24,49.09,1264.68,49.29Z"/><path class="cls-91" d="M1,259.84l1.54-3.37c6.6-.1,12.8,3.66,12.61,9.17-.24,7.07-7.57,8.21-14.06,7.64Z"/><path class="cls-92" d="M1247.31,327.05c-.35,4.87-1.33,9.65-7.71,9.42-2.27-.08-5.94-.37-4.77-4.89,1.45-5.59,2.15-12.58,8.68-13.52C1247.23,317.52,1247.05,323.37,1247.31,327.05Z"/><path class="cls-93" d="M1343.46,116.85c.52-5.17,3.17-9.3,9.09-9.86a4.64,4.64,0,0,1,5.25,5.25c-.74,5.18-3,10-8.9,10.89C1345,123.74,1343.46,121,1343.46,116.85Z"/><path class="cls-84" d="M61.65,26.33c-.28,2.19.43,4.58-2,5.39-2.59.88-3.31-1.52-4.18-3.14-2.11-3.9-5.8-6.83-6.71-11.49-.5-2.55-1.41-5.21,1.12-6.89,3-2,4.6.9,6.18,2.64C59.62,16.71,60.67,21.68,61.65,26.33Z"/><path class="cls-94" d="M326.44,49.41c-.25,4.22-.11,8.36-5,7.75a8.9,8.9,0,0,1-8-9.22c.06-3.32,2.52-7.1,7-6.91C326.49,41.28,325.85,46.25,326.44,49.41Z"/><path class="cls-95" d="M409,28.47c.65-4,.94-9.38,6.4-10.73,3.81-.94,5.41,3,5.07,6.07-.54,4.84-.95,10.74-7.41,11.48C409.56,35.69,409.1,32.13,409,28.47Z"/><path class="cls-96" d="M523.75,179.52c-.52,3.57.52,9.27-5.45,9-5.1-.21-4.61-5.46-4.67-9.3s-.51-8.61,5.37-8.36C524.23,171.11,523.54,175.55,523.75,179.52Z"/><path class="cls-97" d="M172.63,15.75c6-.41,10.49,0,10.87,5.57.27,4.16-3.33,4.67-6.53,4.32-4.52-.49-10.94.16-11.65-5.38C164.67,15.13,170.56,16.06,172.63,15.75Z"/><path class="cls-98" d="M728.66,140.2c-2.36-2.7-8.26-2.5-8.29-6.69,0-5.19,6-6.39,9.72-7.56,3.13-1,5.69,3.6,5.59,6.74C735.57,136.22,733.3,139.38,728.66,140.2Z"/><path class="cls-99" d="M821.4,248.14c1.79.21,6.38-.76,5.43,3.85-1.14,5.47-6.51,6.92-11.46,7.73-2.89.47-5-.9-4.82-4.17C810.86,249.31,815,247.8,821.4,248.14Z"/><path class="cls-100" d="M448,47.55c4.69.18,9.45-.68,9.78,5.6.21,4.1-1.8,6.24-6,6.16-5.91-.12-8.56-4.89-9.44-9.09C441.5,45.85,446.61,48.9,448,47.55Z"/><path class="cls-101" d="M541.84,120c-3.79-.12-6.31-1.44-6.06-4.89.45-6.12,5.94-6.82,10.25-8,2.87-.81,4.89,1.62,4.16,4.58C549.07,116.17,546.74,119.91,541.84,120Z"/><path class="cls-96" d="M999.28,197.87c.5-3.64.08-8.44,5.63-8.41,4.65,0,4.37,4.09,4.56,7.49.25,4.66-1.81,8-6.38,8.11S999.64,200.93,999.28,197.87Z"/><path class="cls-102" d="M1139.18,84c-.12,3.27-1.36,5.92-4.35,5.25-4.16-.94-9.29-1.78-10.2-7.09-.46-2.73,1.48-6.38,4.7-5.37C1133.2,78,1138,79.16,1139.18,84Z"/><path class="cls-103" d="M791.89,69.4c.11-3.59-.38-7.79,4.85-8.05,4.61-.22,5.23,3.21,5.24,6.83s0,7.53-5.14,7.91S791.83,72.9,791.89,69.4Z"/><path class="cls-102" d="M619.84,20.66c.43-3.22,2-5.43,5.5-4.54,4.43,1.11,7.17,4.95,8.51,8.57s-1.81,6.49-5.6,7.74C625.3,28.61,619.61,26.74,619.84,20.66Z"/><path class="cls-97" d="M457.62,270c-3.28-.23-6.77.05-5.81-3.62,1.09-4.13,2.86-9,7.94-9.45,3.79-.37,4.59,3.42,4.77,6.52C464.86,268.91,460.68,269.31,457.62,270Z"/><path class="cls-104" d="M1380.09,104.68c3.28,1,8.64-1.74,8.39,4.26-.21,5.15-5,4.37-8.49,4.27-3-.08-7.5,1.4-7.68-3.87C1372.1,103.3,1377.16,105.56,1380.09,104.68Z"/><path class="cls-105" d="M872.15,140.49c3.22.95,5.81,2.76,5.25,6.37s-1.36,7.81-6,7.73c-4-.07-5.32-3.51-5.19-7.18S868.32,141.26,872.15,140.49Z"/><path class="cls-106" d="M762.53,16.23c4.05,1.07,8.82,1.39,8.68,7.1-.08,3.09-2.55,4.5-5.31,3.42-3.56-1.39-9.09-.82-9.15-6.67C756.72,16.55,759.35,15.57,762.53,16.23Z"/><path class="cls-107" d="M1331.57,268.31a33.25,33.25,0,0,0-10.12,23.51c-1.23-.55-3-.76-3.6-1.71-4.71-7.66,3.81-12.41,4.6-19.09C1323,266.83,1327.9,267.36,1331.57,268.31Z"/><path class="cls-108" d="M326.29,384.51c-1,8.78,1.73,16.13,8.56,21.85-3.79,2.95-6.51,1.94-8.4-2.25-1.36-3-2.38-6.24-4.24-8.89C318.08,389.34,320,386.19,326.29,384.51Z"/><path class="cls-47" d="M338.19,65.87c.09-4,1.5-7.45,5.87-7.7,3.62-.21,4.38,3,4.08,5.92-.36,3.62-1.08,7.75-5.46,8.21S338.35,69,338.19,65.87Z"/><path class="cls-109" d="M366.79,254c-4.15,11.36-9.53,22-17.76,31.12C354.17,274.36,357.88,262.75,366.79,254Z"/><path class="cls-110" d="M296,59.27c1.84,8.53,9.05,13.5,13.51,20.3-3.76,2.21-6.73,1.9-8.9-2.35-2-3.94-4.39-7.7-6.5-11.59C292.68,63,291.74,60.31,296,59.27Z"/><path class="cls-111" d="M1129.16,254.48c.39,4-1.46,7.81-5.59,7.6-4.8-.24-3.4-5.58-4.13-8.69s1.65-5,5-5.23C1129,247.93,1129.27,251,1129.16,254.48Z"/><path class="cls-112" d="M196.49,357.5l1.78,5.08c-2,2-4,1.86-5.66-.23-5.37-6.6-2.42-19,5.49-23.33h0A22.54,22.54,0,0,1,196.49,357.5Z"/><path class="cls-113" d="M460.58,165.48c4.35.12,8.13.87,8.34,5.58.12,2.71-2,4.72-5,4.44-4.44-.41-8.33-3.29-9.5-6.82C453.6,166.3,458.3,165.82,460.58,165.48Z"/><path class="cls-114" d="M978.09,263.18c2.19.39,6-.63,5.37,3.09s-2.49,7.91-6.94,8.25c-3.68.29-5.07-3.38-5.34-6.35C970.73,263.31,974.62,263.36,978.09,263.18Z"/><path class="cls-115" d="M1149.51,514.11c6.66,10.52,6.67,23.61,0,32.22Z"/><path class="cls-116" d="M987.5,195.77c-.16,4.19-1.38,6.81-4.85,6.47-4.86-.49-4.43-5-5.06-8.28-.56-2.9.86-4.87,4.11-4.75C986.68,189.39,986.84,193.3,987.5,195.77Z"/><path class="cls-117" d="M93.55,313.75c3.64,8,12,8.52,18.6,11.81-5.42,1.58-20.29-2.4-22.84-6.35-1-1.55-2.16-3.57-.93-5.46C89.93,311.36,91.82,313.13,93.55,313.75Z"/><path class="cls-118" d="M486.58,116.67c.76,4.53,3.58,6.9,8,6.63,5.34-.31,10.39,1.12,15.56,1.83-2.87,6.11-8.31,2.89-12.55,3.08-4.09.18-7.71-2.72-11.56-4.09C481.54,122.5,483.05,119,486.58,116.67Z"/><path class="cls-119" d="M747.67,67.74c-1.65,3.38-3.86,6.57-8.38,6.57-2.93,0-4.79-1.74-4.3-4.84.78-4.84,4.81-5.85,8.69-6.3C746.21,62.87,747.68,64.71,747.67,67.74Z"/><path class="cls-120" d="M1080.27,228.39c.06,4,.47,8.36-4.61,8.68-4,.26-3.75-3.41-3.75-6.17,0-4.22,1.68-8.59,5.84-8.9C1081.6,221.7,1079.66,226.31,1080.27,228.39Z"/><path class="cls-121" d="M1139.28,404.7c-.76,3.83-2.71,6.88-7.08,6.36-4-.48-3.09-4.1-2.81-6.64.41-3.66,2.61-6.28,6.52-6.12C1140.07,398.48,1139.07,402,1139.28,404.7Z"/><path class="cls-97" d="M279.27,48.05c-.79,3.79-.83,8.31-5.19,8.66-3.71.3-3.32-3.67-3.32-6.32,0-3.53-.37-8.19,4-8.77C278.63,41.12,278.38,45.59,279.27,48.05Z"/><path class="cls-122" d="M1366,281.75c5,0,8,2.1,8.87,5.93a3.16,3.16,0,0,1-4.26,3.64c-3.31-1.3-8.83.52-9.49-4.89C1360.75,283.24,1363.49,281.62,1366,281.75Z"/><path class="cls-123" d="M1156.18,39.91c-.15,3.05.26,6.94-3.93,7.12-4.91.2-4.43-4-4.48-7.33,0-3.14.07-6.83,4.3-6.74S1156.05,36.83,1156.18,39.91Z"/><path class="cls-42" d="M1057.55,62.55c-4.49.28-5.82-1.35-5.9-4.43-.09-3.62.65-7.18,4.53-7.93,3.26-.63,5,2.25,5.27,5.22C1061.76,59.05,1060.34,61.91,1057.55,62.55Z"/><path class="cls-124" d="M115.53,74.55c1.09,8.2-3.61,18,6.73,23.61-5.31,3.68-8.34,1.3-9.35-4.06C111.65,87.4,108.12,80.17,115.53,74.55Z"/><path class="cls-125" d="M1213.51,106.59c1.22,6.13-5.78,13,1.71,18.55-.49,2.73-1.36,5.11-4.87,4-2.43-.73-3.45-2.58-3.56-5.12A22.57,22.57,0,0,1,1213.51,106.59Z"/><path class="cls-126" d="M46.42,280.87c.48-3.13.58-7.12,5.51-7.28,2.46-.08,4.55,1.46,3.72,4.17-1,3.35.09,8.47-5.57,8.75C46.54,286.68,46.48,283.87,46.42,280.87Z"/><path class="cls-5" d="M960.44,153.63c-.26,5.71-5.22,6.8-9.07,8.31-1.54.61-2.89-2.78-2.2-4.42,1.58-3.71,3.51-7.76,8-8.48C960.16,148.56,960.46,151.29,960.44,153.63Z"/><path class="cls-127" d="M7.58,98.19c.36,7.84-1,15.81,1.72,23.49-2.86.09-4.53-2.17-6.72-3.39q0-8.39,0-16.75Z"/><path class="cls-128" d="M955.47,305.34c3.34,9.56,13.32,10.31,20.2,15.18-6.59,2.32-20.08-3.83-22.29-10.24C952.64,308.13,953.91,306.62,955.47,305.34Z"/><path class="cls-129" d="M474.83,71.19C476,79.5,482,85.56,484.88,93.06c-5.22,1-8.22-2.11-8.89-6.45C475.22,81.56,468.09,76.79,474.83,71.19Z"/><path class="cls-130" d="M205,274.42a20.82,20.82,0,0,1,9.27,5.76c2.17,2.27,3.5,4.92.42,7.16s-5.47.1-7-2.41A19.16,19.16,0,0,1,205,274.42Z"/><path class="cls-131" d="M197.21,184c-3.07-.11-6.72.11-7-4.07-.21-3.67,2.88-4.26,5.85-4.31,3.22-.06,6.49.25,6.85,4.32S200,184,197.21,184Z"/><path class="cls-132" d="M496.51,181c.06,3-1,4.82-3.29,4.37-3.54-.68-8.46-.16-9.07-5.14-.3-2.45,2.46-4.49,5.19-4.24C492.75,176.32,495.64,177.92,496.51,181Z"/><path class="cls-133" d="M1035.41,89.73c2.72.11,6.93-.09,6.09,3.49-1,4.18-6.2,3.72-9.77,4.66-1.91.49-4.64-.43-4.29-2.64C1028.09,91.16,1031.3,89.51,1035.41,89.73Z"/><path class="cls-134" d="M726.06,94.74c2.92,7.35,6.48,14.23,13.56,18.54-7.64-1-13.73-4.09-16.15-12.06C722.6,98.37,722,95.64,726.06,94.74Z"/><path class="cls-135" d="M1110.36,67.43c-1.23,3.95-5,5.27-8.86,5.89-1.83.29-2.73-1.88-2.27-3.67,1-3.68,2.51-6.94,7.17-6.83C1109.07,62.89,1110.63,64,1110.36,67.43Z"/><path class="cls-136" d="M886.26,67c-.25,1.71.23,5.2-3.54,4.41S878,67,878,63.55c0-2.19,0-5,3.29-4.54C885.35,59.58,886.51,62.65,886.26,67Z"/><path class="cls-137" d="M70.42,393.13a6.61,6.61,0,0,1,6.18,6.33c.26,2.26.11,5-3,4.88-4.41-.14-5.74-3.89-6.69-7.33C66.36,394.87,67.61,393.29,70.42,393.13Z"/><path class="cls-138" d="M120.54,189.15c.7,7.63,2.91,14.43,10.11,18.51-12.31,4.42-9.19-8.44-13.74-12.67C113.78,192.08,117.06,189.78,120.54,189.15Z"/><path class="cls-139" d="M1191.51,349.21c-3-6.51-6.48-12.87-6.67-20.31C1193.24,334.72,1195,340,1191.51,349.21Z"/><path class="cls-140" d="M1085.25,541.55c.53-2.75-1-7.21,2.49-7.17,3.83,0,4.21,4.61,4.2,7.94,0,2.75-.53,6.63-3.79,6.45C1083.46,548.5,1086.23,543.93,1085.25,541.55Z"/><path class="cls-141" d="M972.28,34.17c3.44,6,6,12.8,13.52,15.14-8.7,1.88-17-4.52-16.44-12.79C969.47,34.8,970.9,34.45,972.28,34.17Z"/><path class="cls-142" d="M982.45,242.9c5.5,5.52,9.53,12.11,13.63,18.64C986.72,259.33,982.53,253.61,982.45,242.9Z"/><path class="cls-143" d="M764.9,219.4c2.12-3.64,5.25-4.51,7.72-1.11,1.89,2.59,6.82,6.05.65,9.6C766,229.41,764.88,225,764.9,219.4Z"/><path class="cls-144" d="M850.91,192.43q4.25,7.59,8.51,15.18c-.66,1.52.3,6.25-3.13,3C851.28,206,846.19,200.39,850.91,192.43Z"/><path class="cls-145" d="M136.41,44.1c-3.75.11-5.65-.76-5.46-3.67.25-3.73,3.2-5,6.18-5.75,2.42-.62,3.72.9,3.49,3.26C140.3,41.18,139,43.77,136.41,44.1Z"/><path class="cls-146" d="M1316.38,313.71c5.18,2.48,5.38,7.09,5.09,11.91-5.69.41-7.18-3.94-8.87-7.94S1313.94,313.92,1316.38,313.71Z"/><path class="cls-147" d="M710.26,58.65c.29,1.56-.39,3.64-2.89,3.27-4.1-.61-4.66-4.18-5.17-7.6-.31-2.06-.75-4.4,2.12-4.32C709.35,50.12,709.09,54.59,710.26,58.65Z"/><path class="cls-148" d="M65,67.54c-.33,2.64.22,6.27-3.75,6-3.15-.2-3-3.43-3-5.89,0-2.83.26-6.11,4-6S64.58,65.3,65,67.54Z"/><path class="cls-149" d="M141.49,160c-.47-2.24-.19-4.27,1.92-4.1,5.21.41,3.85,5.3,5,8.37.81,2.18-.51,4.3-2.76,4C140.2,167.63,143.84,162.05,141.49,160Z"/><path class="cls-150" d="M56.47,217.73c2.48,5.39,6.63,7.59,12.55,6.78,2.15-.29,4.41-.14,6.11,1.64-6,4-12,.95-17.58-.89C54.71,224.33,51.72,221,56.47,217.73Z"/><path class="cls-151" d="M931.84,270c-.61,1.21-1.21,2.42-1.81,3.63-4.88-6.94-12.34-8.11-20-8.85C915.86,260.3,923.88,262.22,931.84,270Z"/><path class="cls-152" d="M472.34,204.14c-2.67,3-4.64,5.33-6.74,7.55-1.2,1.25-2.84,2.28-4.45,1.08-1.89-1.41-1.8-3.59-.31-5.18C463.67,204.57,466.69,201.51,472.34,204.14Z"/><path class="cls-153" d="M549.75,236.08c-2.45-.06-4.2-.8-3.65-2.86,1.09-4,4.17-6.39,8-7.54a1.89,1.89,0,0,1,2.53,2.26A15.15,15.15,0,0,1,549.75,236.08Z"/><path class="cls-154" d="M1301.21,22.33c1.12,5.61,3.58,10.94,3.39,16.81-8.3-4-6.79-11.48-6.71-18.47C1299.82,19.59,1300.3,21.39,1301.21,22.33Z"/><path class="cls-155" d="M562.48,20.65c5.83,5.22,6.21,14.42,13.55,18.54C566.72,37.51,561.62,30.53,562.48,20.65Z"/><path class="cls-156" d="M91.89,275c.29,4.52-.79,9.22,1.76,13.44-2.86,1.47-5.92,1.83-6.37-2.09C86.78,282.08,84.73,276.49,91.89,275Z"/><path class="cls-157" d="M933.55,227.84l18.5,13.45C941.89,242.29,936.46,236.8,933.55,227.84Z"/><path class="cls-158" d="M1033.27,238.25c2,.18,2.17,1.44,1.68,2.92-1,3.08-1.2,7-5.24,7.71-2.36.39-3.34-1.83-3-4C1027.3,241.2,1029.69,239.07,1033.27,238.25Z"/><path class="cls-119" d="M402.36,94.76c-2.38-.6-5.73-.61-5.74-3.63,0-3.36,3.28-3,5.72-3,2.85.07,5.11,1.74,5.1,4.43C407.44,96.16,404.16,94.17,402.36,94.76Z"/><path class="cls-159" d="M1359.23,176.21c3.41,1.12,6.66,2.92,8.07,6.45.83,2.09-1.44,3.09-3,2.73-3.73-.85-6.23-3.64-7.78-6.93C1355.84,177.07,1357.48,176.15,1359.23,176.21Z"/><path class="cls-160" d="M279.13,236.27c3,6.31,8,11.21,12,16.86C282.16,251.25,278.31,245.84,279.13,236.27Z"/><path class="cls-161" d="M1216.45,80.89c-1.67.1-2.71-1-2.73-3,0-4.12,3.07-4.87,6.17-5.55,1.72-.38,2.84.43,2.65,2.15C1222.16,77.84,1220.52,80.28,1216.45,80.89Z"/><path class="cls-162" d="M350,113.2a58.31,58.31,0,0,1,16.83,8.48C359.7,121.8,352.47,122.19,350,113.2Z"/><path class="cls-163" d="M667.82,210.93a14.89,14.89,0,0,1,2.43,11c-.19,1.44-.84,2.91-2.38,2.86s-2.22-1.54-2.27-3C665.45,218.08,664.49,214.14,667.82,210.93Z"/><path class="cls-164" d="M926.82,99.85c6.83,1.67,11.16,6.55,15.17,11.83C934.11,111.36,929.83,106.41,926.82,99.85Z"/><path class="cls-165" d="M1250.62,275c-.48,3.7,1.49,8-2.41,10.83-.67.49-2.69.42-3,0-2.33-4.07,1.1-7.22,2-10.8A2.25,2.25,0,0,1,1250.62,275Z"/><path class="cls-166" d="M1321.48,327.18c7,1.09,9.35,7.39,13.43,11.76C1327.62,338.22,1323.05,334.41,1321.48,327.18Z"/><path class="cls-167" d="M986.42,296.66c-.13-5.17,1-8.46,5.42-9.64,1.25-.33,3.43-.09,3.1,1.63C994.13,292.83,990.31,294.11,986.42,296.66Z"/><path class="cls-168" d="M1222,224.39c.9,6.17,0,13.06,6.73,16.93-3.16,2.67-5.61,2.14-7-1.79C1220,234.49,1218.9,229.39,1222,224.39Z"/><path class="cls-135" d="M48.79,165c4.94-2.19,8.85-.89,12.85,1.67C56.26,169.86,56.14,169.85,48.79,165Z"/><path class="cls-169" d="M619.84,20.66c2.08,4.43,7.82,6.27,8.41,11.77C622.41,30.67,617,28.6,619.84,20.66Z"/><path class="cls-170" d="M1078.58,293.61,1066.84,285C1072,282.23,1076.86,285.83,1078.58,293.61Z"/><path class="cls-171" d="M764.9,219.4c1.85,3.75,3.35,7.84,8.37,8.49-2.44,8.71-5.28,1.58-7.35-.07C763.16,225.62,761.89,222.6,764.9,219.4Z"/><path class="cls-172" d="M249.36,170.59c1.57.18,3.66-.14,2.95,2.55a4.92,4.92,0,0,1-4.62,4c-1.77.14-3.55-.35-3.48-2.46C244.31,171.53,246.7,170.78,249.36,170.59Z"/><path class="cls-15" d="M97.17,365.4c4.77-3.53,8-7.3,14.34-3.67C106.92,364.27,103.17,366.17,97.17,365.4Z"/><path class="cls-173" d="M362.35,157.75c-1.62,3.43-2.69,6.44-6.71,5.67a2.18,2.18,0,0,1-1.7-3.16C355.45,156.67,358.41,156.76,362.35,157.75Z"/><path class="cls-174" d="M774.93,131.92q2.58,5.84,5.15,11.68C772.15,141.11,770.69,137.81,774.93,131.92Z"/><path class="cls-175" d="M850,182.11c4.86-5.27,8.67-5.16,13.75-4.15C860,181.49,856.35,182.18,850,182.11Z"/><path class="cls-176" d="M472.51,25.45c-2.49,0-3.39.23-4.11,0-3-1.1-5.35-2.94-6.28-6.13a1.52,1.52,0,0,1,.71-1.32c3.84-1,4,3.17,6.25,4.47A31.47,31.47,0,0,1,472.51,25.45Z"/><path class="cls-177" d="M415.61,101.1c1.81,2.77,3.86,5.5,2,8.86a2.39,2.39,0,0,1-2.09.49C413,107.53,414.05,104.36,415.61,101.1Z"/><path class="cls-178" d="M1321.48,236.25H1308Q1314.73,228.27,1321.48,236.25Z"/><path class="cls-179" d="M86.46,193.6c5.54-2.85,5.54-2.85,11.25,1.49C93.39,196.32,90,196.06,86.46,193.6Z"/><path class="cls-180" d="M242.33,298.9c-4,2-6.22.28-7.76-2.67-.24-.46.31-2,.68-2C239.06,293.48,239.74,297.54,242.33,298.9Z"/><path class="cls-181" d="M1365.32,52.65l11.84,0C1373.2,57.94,1369.26,58,1365.32,52.65Z"/><path class="cls-182" d="M268.57,168.37c.2,1.74,0,3-1.41,3-2.56-.1-3.81-2-4.45-4.21-.33-1.14,0-2.41,1.43-2.41C266.82,164.71,267.67,166.94,268.57,168.37Z"/><path class="cls-183" d="M1340,29.11c-2.54-.43-4.82-1.19-5.37-4.34,3.73-1.6,6.33.27,8.79,2.61C1343.56,30.48,1341.91,30,1340,29.11Z"/><path class="cls-184" d="M1150.9,327.94c2.7,2.22,3.17,4.59,1.8,7.31-.61,1.21-2,1.46-2.52.34C1149.05,333.12,1148.79,330.5,1150.9,327.94Z"/><path class="cls-125" d="M505.07,213.25c-2.85-2.15-1-4.76-1.76-8.34C506.61,209.15,506.61,209.15,505.07,213.25Z"/><path class="cls-135" d="M164.5,106.81c-2,5.37-4.56,6.63-8.72,6.28C157.72,109.88,160.82,109.41,164.5,106.81Z"/><path class="cls-185" d="M1170.59,276.6c-4.88-.75-5.3-3.48-5.91-7.35C1168.4,270.85,1169,273.45,1170.59,276.6Z"/><path class="cls-186" d="M933.56,93.06l-6.74,0C929.05,88.4,931.29,88.42,933.56,93.06Z"/><path class="cls-187" d="M572.62,113.29h6.75C577.11,118,574.86,118,572.62,113.29Z"/><path class="cls-188" d="M571,209.33c-.78,4.11-4.06,3.15-6.78,3.34C564.94,208.53,568.22,209.49,571,209.33Z"/><path class="cls-189" d="M1340,29.11l3.42-1.73c1.26,1.28,2.22,2.92.41,4.12C1341.4,33.11,1340.52,31.16,1340,29.11Z"/><path class="cls-190" d="M1098.85,20.62h-5.09c.3-1.28.56-2.67,2.17-2.88C1098.05,17.47,1098.49,19,1098.85,20.62Z"/><path class="cls-191" d="M798.65,273.25l-3.52.09a4.84,4.84,0,0,1-1.5-.27C795.46,268.92,797.12,269.18,798.65,273.25Z"/><path class="cls-192" d="M125.62,244.74l5.11-.05c-.35,1.59-.79,3.16-2.91,2.91C126.21,247.4,125.94,246,125.62,244.74Z"/><path class="cls-193" d="M59.9,248c-2.46.05-4.71-.22-5.08-3.33C57.28,244.65,59.53,244.92,59.9,248Z"/><path class="cls-194" d="M346.59,185.76l5.09,0c-.35,1.59-.79,3.16-2.91,2.9C347.15,188.43,346.9,187,346.59,185.76Z"/><path class="cls-195" d="M1250.62,275h-3.36c.28-1.45-.5-3.85,1.69-3.84S1250.35,273.57,1250.62,275Z"/><path class="cls-196" d="M1301.21,22.33l-3.32-1.66c.56-1.14,1.11-2.28,1.67-3.41C1301.25,18.58,1301.22,20.46,1301.21,22.33Z"/><path class="cls-197" d="M196.49,357.5A31.23,31.23,0,0,1,198.14,339c8.53.5,9.06,6.26,7.81,12.57C205,356.48,203.33,361.46,196.49,357.5Z"/></svg>